<mxfile host="app.diagrams.net" modified="2024-05-28T01:20:46.454Z" agent="Mozilla/5.0 (Macintosh; Intel Mac OS X 10_15_7) AppleWebKit/537.36 (KHTML, like Gecko) Chrome/125.0.0.0 Safari/537.36" etag="wxo1UQHn04hDa1yT6z25" version="24.4.9" type="github">
  <diagram id="f106602c-feb2-e66a-4537-3a34d633f6aa" name="Page-1">
    <mxGraphModel dx="614" dy="491" grid="1" gridSize="10" guides="1" tooltips="1" connect="0" arrows="0" fold="1" page="1" pageScale="1" pageWidth="1169" pageHeight="827" background="none" math="0" shadow="0">
      <root>
        <mxCell id="0" />
        <mxCell id="1" parent="0" />
        <mxCell id="14" value="&lt;b&gt;Google &lt;/b&gt;Cloud Platform" style="fillColor=#F6F6F6;strokeColor=#00CC66;shadow=0;gradientColor=none;fontSize=14;align=left;spacing=10;fontColor=#717171;9E9E9E;verticalAlign=top;spacingTop=-4;fontStyle=0;spacingLeft=40;html=1;labelBorderColor=none;glass=0;dashed=1;strokeWidth=3;" parent="1" vertex="1">
          <mxGeometry x="280" y="150" width="550" height="510" as="geometry" />
        </mxCell>
        <mxCell id="15" value="" style="shape=mxgraph.gcp2.google_cloud_platform;fillColor=#F6F6F6;strokeColor=none;shadow=0;gradientColor=none;" parent="14" vertex="1">
          <mxGeometry width="23" height="20" relative="1" as="geometry">
            <mxPoint x="20" y="10" as="offset" />
          </mxGeometry>
        </mxCell>
        <mxCell id="BTRo54htwc7nsr1ADR_A-1050" value="" style="strokeColor=#dddddd;shadow=1;strokeWidth=1;rounded=1;absoluteArcSize=1;arcSize=2;" parent="14" vertex="1">
          <mxGeometry x="382.6086956521739" y="139.99668329177058" width="143.47826086956522" height="76.31331670822942" as="geometry" />
        </mxCell>
        <mxCell id="BTRo54htwc7nsr1ADR_A-1051" value="Cloud&#xa;Storage" style="editableCssRules=.*;html=1;fontColor=#999999;shape=image;verticalLabelPosition=middle;verticalAlign=middle;labelPosition=right;align=left;spacingLeft=20;part=1;points=[];imageAspect=0;image=data:image/svg+xml,PHN2ZyB4bWxucz0iaHR0cDovL3d3dy53My5vcmcvMjAwMC9zdmciIHhtbG5zOnY9Imh0dHBzOi8vdmVjdGEuaW8vbmFubyIgd2lkdGg9IjIwIiBoZWlnaHQ9IjE2IiB2aWV3Qm94PSIwIDAgMjAgMTYiPiYjeGE7CTxzdHlsZSB0eXBlPSJ0ZXh0L2NzcyI+JiN4YTsJLnN0MHtmaWxsOiM0Mjg1ZjQ7fSYjeGE7CS5zdDF7ZmlsbDojNjY5ZGY2O30mI3hhOwkuc3Qye2ZpbGw6I2FlY2JmYTt9JiN4YTsJLnN0M3tmaWxsOiNmZmY7fSYjeGE7CTwvc3R5bGU+JiN4YTsJPHBhdGggY2xhc3M9InN0MiIgZD0iTTAgMGgyMHY3SDB6Ii8+JiN4YTsJPHBhdGggY2xhc3M9InN0MSIgZD0iTTE4IDBoMnY3aC0yeiIvPiYjeGE7CTxwYXRoIGNsYXNzPSJzdDAiIGQ9Ik0xOCA3bDItN2gtMnoiLz4mI3hhOwk8cGF0aCBjbGFzcz0ic3QxIiBkPSJNMCAwaDJ2N0gweiIvPiYjeGE7CTxnIGNsYXNzPSJzdDMiPiYjeGE7CQk8cGF0aCBkPSJNNCAzaDZ2MUg0eiIvPiYjeGE7CQk8cmVjdCB4PSIxMyIgeT0iMiIgd2lkdGg9IjMiIGhlaWdodD0iMyIgcng9IjEuNSIvPiYjeGE7CTwvZz4mI3hhOwk8cGF0aCBjbGFzcz0ic3QyIiBkPSJNMCA5aDIwdjdIMHoiLz4mI3hhOwk8cGF0aCBjbGFzcz0ic3QxIiBkPSJNMTggOWgydjdoLTJ6Ii8+JiN4YTsJPHBhdGggY2xhc3M9InN0MCIgZD0iTTE4IDE2bDItN2gtMnoiLz4mI3hhOwk8cGF0aCBjbGFzcz0ic3QxIiBkPSJNMCA5aDJ2N0gweiIvPiYjeGE7CTxnIGNsYXNzPSJzdDMiPiYjeGE7CQk8cGF0aCBkPSJNNCAxMmg2djFINHoiLz4mI3hhOwkJPHJlY3QgeD0iMTMiIHk9IjExIiB3aWR0aD0iMyIgaGVpZ2h0PSIzIiByeD0iMS41Ii8+JiN4YTsJPC9nPiYjeGE7PC9zdmc+;" parent="BTRo54htwc7nsr1ADR_A-1050" vertex="1">
          <mxGeometry width="30" height="24" relative="1" as="geometry">
            <mxPoint x="15" y="18" as="offset" />
          </mxGeometry>
        </mxCell>
        <mxCell id="128t403l0EzsuIgGotzG-1049" value="cloud-resume-bucket" style="text;strokeColor=none;align=center;fillColor=none;html=1;verticalAlign=middle;whiteSpace=wrap;rounded=0;" parent="BTRo54htwc7nsr1ADR_A-1050" vertex="1">
          <mxGeometry x="-5.978260869565217" y="46.31" width="155.43478260869566" height="30" as="geometry" />
        </mxCell>
        <mxCell id="BTRo54htwc7nsr1ADR_A-1052" value="" style="strokeColor=#dddddd;shadow=1;strokeWidth=1;rounded=1;absoluteArcSize=1;arcSize=2;" parent="14" vertex="1">
          <mxGeometry x="23.913043478260875" y="139.99668329177058" width="131.52173913043478" height="76.31331670822942" as="geometry" />
        </mxCell>
        <mxCell id="BTRo54htwc7nsr1ADR_A-1053" value="Cloud&#xa;DNS" style="editableCssRules=.*;html=1;fontColor=#999999;shape=image;verticalLabelPosition=middle;verticalAlign=middle;labelPosition=right;align=left;spacingLeft=20;part=1;points=[];imageAspect=0;image=data:image/svg+xml,PHN2ZyB4bWxucz0iaHR0cDovL3d3dy53My5vcmcvMjAwMC9zdmciIHhtbG5zOnY9Imh0dHBzOi8vdmVjdGEuaW8vbmFubyIgd2lkdGg9IjIwIiBoZWlnaHQ9IjIwIiB2aWV3Qm94PSIwIDAgMjAgMjAiPiYjeGE7CTxzdHlsZSB0eXBlPSJ0ZXh0L2NzcyI+JiN4YTsJLnN0MHtmaWxsOiM0Mjg1ZjQ7fSYjeGE7CS5zdDF7ZmlsbDojNjY5ZGY2O30mI3hhOwkuc3Qye2ZpbGw6I2FlY2JmYTt9JiN4YTsJLnN0M3tmaWxsOiNmZmY7fSYjeGE7CTwvc3R5bGU+JiN4YTsJPHBhdGggY2xhc3M9InN0MCIgZD0iTTkgNmgydjEwSDl6Ii8+JiN4YTsJPHBhdGggY2xhc3M9InN0MSIgZD0iTTIwIDE3SDB2MmgyMHoiLz4mI3hhOwk8cGF0aCBjbGFzcz0ic3QyIiBkPSJNMTIgMTZIOHY0aDR6TTAgMGgyMHY2SDB6Ii8+JiN4YTsJPHBhdGggY2xhc3M9InN0MSIgZD0iTTEwIDBoMTB2NkgxMHoiLz4mI3hhOwk8cGF0aCBjbGFzcz0ic3QzIiBkPSJNMiAyaDJ2MkgyeiIvPiYjeGE7CTxwYXRoIGNsYXNzPSJzdDIiIGQ9Ik0wIDhoMjB2NkgweiIvPiYjeGE7CTxwYXRoIGNsYXNzPSJzdDEiIGQ9Ik0xMCA4aDEwdjZIMTB6Ii8+JiN4YTsJPHBhdGggY2xhc3M9InN0MyIgZD0iTTIgMTBoMnYySDJ6Ii8+JiN4YTs8L3N2Zz4=;" parent="BTRo54htwc7nsr1ADR_A-1052" vertex="1">
          <mxGeometry width="30" height="30" relative="1" as="geometry">
            <mxPoint x="15" y="15" as="offset" />
          </mxGeometry>
        </mxCell>
        <mxCell id="BTRo54htwc7nsr1ADR_A-1056" value="Cloud&#xa;Functions" style="sketch=0;html=1;verticalAlign=top;labelPosition=center;verticalLabelPosition=bottom;align=center;spacingTop=-6;fontSize=11;fontStyle=1;fontColor=#999999;shape=image;aspect=fixed;imageAspect=0;image=data:image/svg+xml,PHN2ZyB4bWxucz0iaHR0cDovL3d3dy53My5vcmcvMjAwMC9zdmciIHhtbG5zOnY9Imh0dHBzOi8vdmVjdGEuaW8vbmFubyIgd2lkdGg9IjIwIiBoZWlnaHQ9IjE5Ljk4OTk5OTc3MTExODE2NCIgdmlld0JveD0iMCAwIDIwIDE5Ljk4OTk5OTc3MTExODE2NCI+JiN4YTsJPHN0eWxlIHR5cGU9InRleHQvY3NzIj4mI3hhOwkuc3Qwe2ZpbGw6IzQyODVmNDt9JiN4YTsJLnN0MXtmaWxsOiM2NjlkZjY7fSYjeGE7CS5zdDJ7ZmlsbDojYWVjYmZhO30mI3hhOwk8L3N0eWxlPiYjeGE7CTxwYXRoIGNsYXNzPSJzdDEiIGQ9Ik0zIDMuOTlMMCA2LjQydjcuMTNsMyAyLjQ0eiIvPiYjeGE7CTxwYXRoIGNsYXNzPSJzdDAiIGQ9Ik0zIDMuOTlsLTMgNCAzLTJ6bS0zIDhsMyA0di0yeiIvPiYjeGE7CTxwYXRoIGNsYXNzPSJzdDIiIGQ9Ik0wIDE1Ljk5bDQgNCAyLTItNi02em0uMDEtOEw1Ljk5IDJsLTItMkwwIDMuOTl6Ii8+JiN4YTsJPHBhdGggY2xhc3M9InN0MSIgZD0iTTE3IDE2bDMtMi40MlY2LjQ0TDE3IDR6Ii8+JiN4YTsJPHBhdGggY2xhc3M9InN0MCIgZD0iTTE3IDE2bDMtNC0zIDJ6bTMtOGwtMy00djJ6Ii8+JiN4YTsJPGcgY2xhc3M9InN0MiI+JiN4YTsJCTxwYXRoIGQ9Ik0yMCA0bC00LTQtMiAyIDYgNnptLS4wMSA4bC01Ljk4IDUuOTkgMiAyTDIwIDE2eiIvPiYjeGE7CQk8Y2lyY2xlIGN4PSI2IiBjeT0iOS45OSIgcj0iMSIvPiYjeGE7CQk8Y2lyY2xlIGN4PSIxMCIgY3k9IjkuOTkiIHI9IjEiLz4mI3hhOwkJPGNpcmNsZSBjeD0iMTMuOTkiIGN5PSI5Ljk5IiByPSIxIi8+JiN4YTsJPC9nPiYjeGE7PC9zdmc+;" parent="14" vertex="1">
          <mxGeometry x="253.99521739130435" y="294.00074812967586" width="42" height="34" as="geometry" />
        </mxCell>
        <mxCell id="BTRo54htwc7nsr1ADR_A-1057" value="" style="strokeColor=#dddddd;shadow=1;strokeWidth=1;rounded=1;absoluteArcSize=1;arcSize=2;" parent="14" vertex="1">
          <mxGeometry x="382.6086956521739" y="289.9970822942643" width="143.47826086956522" height="76.31291770573563" as="geometry" />
        </mxCell>
        <mxCell id="BTRo54htwc7nsr1ADR_A-1058" value="Firestore" style="editableCssRules=.*;html=1;fontColor=#999999;shape=image;verticalLabelPosition=middle;verticalAlign=middle;labelPosition=right;align=left;spacingLeft=20;part=1;points=[];imageAspect=0;image=data:image/svg+xml,PHN2ZyB4bWxucz0iaHR0cDovL3d3dy53My5vcmcvMjAwMC9zdmciIHhtbG5zOnY9Imh0dHBzOi8vdmVjdGEuaW8vbmFubyIgd2lkdGg9IjMyMy45MDU2MTAzOTg2NzUxNSIgaGVpZ2h0PSIzNzYuNDIyMjk0OTYzNjg0MDciIHZpZXdCb3g9Ii0wLjA5NzAwMDAwMjg2MTAyMjk1IDAuMjg3OTk5OTg3NjAyMjMzOSA4NS42OTk5OTY5NDgyNDIxOSA5OS41OTUwMDEyMjA3MDMxMiI+JiN4YTs8c3R5bGUgdHlwZT0idGV4dC9jc3MiPiYjeGE7CS5zdDB7ZmlsbDojYWVjYmZhO30mI3hhOwkuc3Qxe2ZpbGw6IzY2OWRmNjt9JiN4YTsJLnN0MntmaWxsOiM0Mjg1ZjQ7fSYjeGE7PC9zdHlsZT4mI3hhOwk8cGF0aCBjbGFzcz0ic3QwIiBkPSJNLS4wOTcgNzUuODE1VjU1Ljg3NGw0Mi44NS0yMC4xODN2MTkuMDd6bTAtMzUuNDAzVjIwLjQ3MUw0Mi43NTMuMjg4djE5LjA3eiIvPiYjeGE7CTxwYXRoIGNsYXNzPSJzdDEiIGQ9Ik04NS42MDMgNzUuODE1VjU1Ljg3NGwtNDIuODUtMjAuMTgzdjE5LjA3em0wLTM1LjQwM1YyMC40NzFMNDIuNzUzLjI4OHYxOS4wN3oiLz4mI3hhOwk8cGF0aCBjbGFzcz0ic3QyIiBkPSJNNDIuNzUzIDgwLjMxNGwxNi4yMTctNy41MjUgMjEuMDg0IDkuNzE3LTM3LjMwMSAxNy4zNzd6Ii8+JiN4YTs8L3N2Zz4=;" parent="BTRo54htwc7nsr1ADR_A-1057" vertex="1">
          <mxGeometry width="26" height="30" relative="1" as="geometry">
            <mxPoint x="17" y="15" as="offset" />
          </mxGeometry>
        </mxCell>
        <mxCell id="128t403l0EzsuIgGotzG-1048" value="default" style="text;strokeColor=none;align=center;fillColor=none;html=1;verticalAlign=middle;whiteSpace=wrap;rounded=0;" parent="BTRo54htwc7nsr1ADR_A-1057" vertex="1">
          <mxGeometry x="35.869565217391305" y="46.31291770573563" width="71.73913043478261" height="30" as="geometry" />
        </mxCell>
        <mxCell id="BTRo54htwc7nsr1ADR_A-1059" style="edgeStyle=orthogonalEdgeStyle;rounded=0;html=1;labelBackgroundColor=none;startFill=1;startSize=4;endArrow=blockThin;endFill=1;endSize=4;jettySize=auto;orthogonalLoop=1;strokeColor=#4284F3;strokeWidth=2;fontSize=12;fontColor=#000000;align=left;dashed=0;startArrow=blockThin;entryX=0.003;entryY=0.393;entryDx=0;entryDy=0;entryPerimeter=0;" parent="14" target="BTRo54htwc7nsr1ADR_A-1050" edge="1">
          <mxGeometry relative="1" as="geometry">
            <mxPoint x="330.0047826086957" y="169.99947630922694" as="sourcePoint" />
            <mxPoint x="380" y="170" as="targetPoint" />
            <Array as="points" />
          </mxGeometry>
        </mxCell>
        <mxCell id="BTRo54htwc7nsr1ADR_A-1062" style="edgeStyle=orthogonalEdgeStyle;rounded=0;html=1;labelBackgroundColor=none;startFill=1;startSize=4;endArrow=blockThin;endFill=1;endSize=4;jettySize=auto;orthogonalLoop=1;strokeColor=#4284F3;strokeWidth=2;fontSize=12;fontColor=#000000;align=left;dashed=0;startArrow=blockThin;" parent="14" edge="1">
          <mxGeometry relative="1" as="geometry">
            <mxPoint x="310" y="310.51" as="sourcePoint" />
            <mxPoint x="380" y="311" as="targetPoint" />
            <Array as="points" />
          </mxGeometry>
        </mxCell>
        <mxCell id="BTRo54htwc7nsr1ADR_A-1061" style="edgeStyle=orthogonalEdgeStyle;rounded=0;html=1;labelBackgroundColor=none;startFill=1;startSize=4;endArrow=blockThin;endFill=1;endSize=4;jettySize=auto;orthogonalLoop=1;strokeColor=#4284F3;strokeWidth=2;fontSize=12;fontColor=#000000;align=left;dashed=0;startArrow=blockThin;" parent="14" edge="1">
          <mxGeometry relative="1" as="geometry">
            <mxPoint x="119.56739130434782" y="310.5" as="sourcePoint" />
            <mxPoint x="239.13260869565215" y="310.5" as="targetPoint" />
            <Array as="points">
              <mxPoint x="149.4586956521739" y="310.5" />
            </Array>
          </mxGeometry>
        </mxCell>
        <mxCell id="BTRo54htwc7nsr1ADR_A-1068" value="Cloud&#xa;Monitoring" style="sketch=0;html=1;verticalAlign=top;labelPosition=center;verticalLabelPosition=bottom;align=center;spacingTop=-6;fontSize=11;fontStyle=1;fontColor=#999999;shape=image;aspect=fixed;imageAspect=0;image=data:image/svg+xml,PHN2ZyB4bWxucz0iaHR0cDovL3d3dy53My5vcmcvMjAwMC9zdmciIHhtbG5zOnY9Imh0dHBzOi8vdmVjdGEuaW8vbmFubyIgd2lkdGg9IjIwIiBoZWlnaHQ9IjEzLjUyOTk5OTczMjk3MTE5MSIgdmlld0JveD0iLTIuOTMyMDk3ODk3ODEyMDE0ZS05IC01LjI1ODAxNTA0MTgzNzk1NmUtMTUgMjAgMTMuNTI5OTk5NzMyOTcxMTkxIj4mI3hhOwk8c3R5bGUgdHlwZT0idGV4dC9jc3MiPiYjeGE7CS5zdDB7ZmlsbDojNDI4NWY0O30mI3hhOwkuc3Qxe2ZpbGw6IzY2OWRmNjt9JiN4YTsJPC9zdHlsZT4mI3hhOwk8cGF0aCBjbGFzcz0ic3QxIiBkPSJNOC44MyAxMC41OGgyLjMzdjIuNjRIOC44M3oiLz4mI3hhOwk8cGF0aCBjbGFzcz0ic3QwIiBkPSJNMTYuNDggOC42MWEuNTYuNTYgMCAwIDEtLjQtLjE3TDEyIDQuMjEgOS4yNiA3LjFhLjU3LjU3IDAgMCAxLS43Ni4wNUw2LjQyIDUuNDdsLTIuMiAyLjkyYS41Ni41NiAwIDAgMS0uNDUuMjJIMHYxLjcxYS43NS43NSAwIDAgMCAuNzQuNzVoMTguNTJhLjc1Ljc1IDAgMCAwIC43NC0uNzVWOC42MXoiLz4mI3hhOwk8cGF0aCBjbGFzcz0ic3QxIiBkPSJNMy41IDcuNWwyLjM4LTMuMTZhLjU1LjU1IDAgMCAxIC4zNy0uMjIuNjMuNjMgMCAwIDEgLjQyLjEybDIuMTIgMS43MiAyLjgtMi45NGEuNTQuNTQgMCAwIDEgLjQtLjE3aDBhLjU0LjU0IDAgMCAxIC40LjE3bDQuMzMgNC40OEgyMFYuNzRhLjc0Ljc0IDAgMCAwLS43NC0uNzRILjc0QS43NC43NCAwIDAgMCAwIC43NHY2LjgxeiIvPiYjeGE7CTxyZWN0IGNsYXNzPSJzdDAiIHg9IjYuNjciIHk9IjEyLjkyIiB3aWR0aD0iNi42NyIgaGVpZ2h0PSIuNjEiIHJ4PSIuMyIvPiYjeGE7PC9zdmc+;" parent="14" vertex="1">
          <mxGeometry x="68.67043478260868" y="420" width="42" height="29" as="geometry" />
        </mxCell>
        <mxCell id="128t403l0EzsuIgGotzG-1050" value="cloud-resume-function" style="text;strokeColor=none;align=center;fillColor=none;html=1;verticalAlign=middle;whiteSpace=wrap;rounded=0;" parent="14" vertex="1">
          <mxGeometry x="200.26565217391303" y="350" width="149.45652173913044" height="30" as="geometry" />
        </mxCell>
        <mxCell id="BTRo54htwc7nsr1ADR_A-1048" value="" style="strokeColor=#dddddd;shadow=1;strokeWidth=1;rounded=1;absoluteArcSize=1;arcSize=2;" parent="14" vertex="1">
          <mxGeometry x="220" y="148.14999999999998" width="110" height="60" as="geometry" />
        </mxCell>
        <mxCell id="BTRo54htwc7nsr1ADR_A-1049" value="Cloud&#xa;CDN" style="editableCssRules=.*;html=1;fontColor=#999999;shape=image;verticalLabelPosition=middle;verticalAlign=middle;labelPosition=right;align=left;spacingLeft=20;part=1;points=[];imageAspect=0;image=data:image/svg+xml,PHN2ZyB4bWxucz0iaHR0cDovL3d3dy53My5vcmcvMjAwMC9zdmciIHhtbG5zOnY9Imh0dHBzOi8vdmVjdGEuaW8vbmFubyIgd2lkdGg9IjIwIiBoZWlnaHQ9IjIwIiB2aWV3Qm94PSIwIDAgMjAgMjAiPiYjeGE7CTxzdHlsZSB0eXBlPSJ0ZXh0L2NzcyI+JiN4YTsJLnN0MHtmaWxsOiM0Mjg1ZjQ7fSYjeGE7CS5zdDF7ZmlsbDojNjY5ZGY2O30mI3hhOwkuc3Qye2ZpbGw6I2FlY2JmYTt9JiN4YTsJPC9zdHlsZT4mI3hhOwk8cGF0aCBjbGFzcz0ic3QxIiBkPSJNMTMuMTMgNS42M1YzLjIxTDEwIDB2Mi40MXptMy43NSA3LjVMMjAgMTBoLTIuNWwtMy4xMiAzLjEzem0tMTMuNzUgMEwwIDEwaDIuNWwzLjEzIDMuMTN6bTEwIDEuMjV2Mi40MUwxMCAyMHYtMi40MXoiIGZpbGwtcnVsZT0iZXZlbm9kZCIvPiYjeGE7CTxwYXRoIGNsYXNzPSJzdDIiIGQ9Ik02Ljg4IDUuNjNMMTAgMi40MVYwTDYuODggMy4yMXpNMTcuNSAxMEgyMGwtMy4xMi0zLjEyaC0yLjV6bS0xNSAwSDBsMy4xMy0zLjEyaDIuNXptNC4zOCA0LjM4TDEwIDE3LjU5VjIwbC0zLjEyLTMuMjF6bTAtNy41aDYuMjV2Ni4yNUg2Ljg4eiIgZmlsbC1ydWxlPSJldmVub2RkIi8+JiN4YTsJPHBhdGggY2xhc3M9InN0MSIgZD0iTTYuODggMTMuMTNsNi4yNS02LjI1djYuMjV6IiBmaWxsLXJ1bGU9ImV2ZW5vZGQiLz4mI3hhOwk8cGF0aCBjbGFzcz0ic3QwIiBkPSJNMTAgMTBsMy4xMy0zLjEydjYuMjV6IiBmaWxsLXJ1bGU9ImV2ZW5vZGQiLz4mI3hhOzwvc3ZnPg==;" parent="BTRo54htwc7nsr1ADR_A-1048" vertex="1">
          <mxGeometry width="30" height="30" relative="1" as="geometry">
            <mxPoint x="15" y="15" as="offset" />
          </mxGeometry>
        </mxCell>
        <mxCell id="1048" style="edgeStyle=orthogonalEdgeStyle;rounded=0;html=1;labelBackgroundColor=none;startFill=1;startSize=4;endArrow=blockThin;endFill=1;endSize=4;jettySize=auto;orthogonalLoop=1;strokeColor=#4284F3;strokeWidth=2;fontSize=12;fontColor=#000000;align=left;dashed=0;startArrow=blockThin;" parent="BTRo54htwc7nsr1ADR_A-1048" edge="1">
          <mxGeometry relative="1" as="geometry">
            <mxPoint x="-64.57" y="21.350000000000023" as="sourcePoint" />
            <mxPoint y="21.850000000000023" as="targetPoint" />
          </mxGeometry>
        </mxCell>
        <mxCell id="BTRo54htwc7nsr1ADR_A-1055" value="API Gateway" style="sketch=0;html=1;verticalAlign=top;labelPosition=center;verticalLabelPosition=bottom;align=center;spacingTop=-6;fontSize=11;fontStyle=1;fontColor=#999999;shape=image;aspect=fixed;imageAspect=0;image=data:image/svg+xml,PHN2ZyB4bWxucz0iaHR0cDovL3d3dy53My5vcmcvMjAwMC9zdmciIGhlaWdodD0iMzY3LjgxODMyODg1NzQyMTkiIHZpZXdCb3g9IjcuMTA1NDI3MzU3NjAxMDAyZS0xNSAwIDM2Ni40MTAxODY3Njc1NzgxIDM2Ny44MTgzMjg4NTc0MjE5IiBwcmVzZXJ2ZUFzcGVjdFJhdGlvPSJ4TWlkWU1pZCBtZWV0IiB3aWR0aD0iMzY2LjQxMDE5Njc2NzU3OTEiIHZlcnNpb249IjEuMSIgaWQ9InN2Zzk4NyIgem9vbUFuZFBhbj0ibWFnbmlmeSI+JiN4YTsgIDxwYXRoIGQ9Im0gNDguMjUxOTYsMTExLjUzOTA2IGMgLTcuNjE4NjQsMmUtNCAtMTMuNzk0NzIsNi4xNzYyOCAtMTMuNzk0OTMsMTMuNzk0OTIgMi4xZS00LDcuNjE4NjQgNi4xNzYyOSwxMy43OTQ3MiAxMy43OTQ5MywxMy43OTQ5MiBoIDE0NS4xNDY5MiB2IC0yNy41ODk4NCB6IG0gMjM4LjYwODU5LDU3LjQ1MTE3IGggNjUuNzU0NjkgYyA3LjYxODY0LC0yLjFlLTQgMTMuNzk0NzEsLTYuMTc2MjggMTMuNzk0OTIsLTEzLjc5NDkyIC0yLjFlLTQsLTcuNjE4NjQgLTYuMTc2MjgsLTEzLjc5NDcxIC0xMy43OTQ5MiwtMTMuNzk0OTIgSCAyODQuODUwNiBaIE0gMTMuNzk0OTIsMTcwLjk3NDYxIEMgNi4xNzYyODAxLDE3MC45NzQ4MiAyLjEwMDkxOWUtNCwxNzcuMTUwODkgOS4xODk5MjFlLTgsMTg0Ljc2OTUzIC04LjY5OTA4MWUtNCwxOTIuMzg4OTMgNi4xNzU1MjAxLDE5OC41NjYxOSAxMy43OTQ5MiwxOTguNTY2NCBIIDE5My4zOTg4OCBWIDE3MC45NzQ2MSBaIE0gMjg0LjMwNzgsMjI3LjU2NjQgaCA2OC4zMDc0NCBjIDcuNjE4NjQsLTIuMWUtNCAxMy43OTQ3MSwtNi4xNzYyOCAxMy43OTQ5MiwtMTMuNzk0OTIgLTIuMWUtNCwtNy42MTg2NCAtNi4xNzYyOCwtMTMuNzk0NzEgLTEzLjc5NDkyLC0xMy43OTQ5MiBoIC02NS45MjE3OCB6IG0gLTIzNi4wNTU4NCwxLjY5NzI3IGMgLTcuNjE4NjQsMmUtNCAtMTMuNzk0NzIsNi4xNzYyOCAtMTMuNzk0OTMsMTMuNzk0OTIgMi4xZS00LDcuNjE4NjQgNi4xNzYyOSwxMy43OTQ3MiAxMy43OTQ5MywxMy43OTQ5MiBIIDE5My4zOTg4OCBWIDIyOS4yNjM2NyBaIE0gMTg5LjUyMTQ5LDAgYyAtMjQuNTc0MTEsMCAtNDkuMTY3MzcsMjAuMDU1MDcgLTU5LjQzNzUsNzUuMzczMDQgaCAzMC41ODAwNyBjIDQuNjE2MzMsLTI0LjE2MjA2IDE1LjM0ODk2LC00Ny41MjE0OCAyNy44NTM1MiwtNDcuNTIxNDggMTIuMTU4OCwwIDM5LjQ1ODk4LDU3LjQ1MDQ0IDM5LjQ1ODk4LDE2MC40MTQwNiAwLDY5LjkxNTEzIC0xOS41NzgwOSwxNTIuMTE1MjQgLTQxLjE3MTg3LDE1Mi4xMTUyMyAtMTUuMjY4ODEsMmUtNSAtMjEuMjE2NjgsLTI4LjMzMzU2IC0yNS40NDMzNiwtNDYuNzE4NzQgbCAtMzAuNDE0MDYsLTAuMDY4NCBjIDQuMjIwNzQsMjAuNTQwODcgMTYuOTA3NjgsNzQuMjI0NiA1Ny43MTI4OSw3NC4yMjQ2IDUzLjQzNjcyLDAgNjguOTEyMTEsLTExMS45OTMwNSA2OC45MTIxMSwtMTgwLjQ2Mjg5IEMgMjU3LjU3MjI3LDkzLjgwMDc2IDIzNi41ODM0LDAgMTg5LjUyMTQ5LDAgWiIgc3R5bGU9ImNvbG9yOiMwMDAwMDA7b3BhY2l0eToxO2ZpbGw6IzQyODVmNDtmaWxsLW9wYWNpdHk6MTtzdHJva2UtbGluZWNhcDpyb3VuZDstaW5rc2NhcGUtc3Ryb2tlOm5vbmUiLz4mI3hhOzwvc3ZnPg==;" parent="14" vertex="1">
          <mxGeometry x="68.67000000000002" y="290" width="42" height="42" as="geometry" />
        </mxCell>
        <mxCell id="818" value="Architecture: Websites &amp;gt; Cloud Resume Challenge" style="fillColor=#4DA1F5;strokeColor=none;shadow=1;gradientColor=none;fontSize=14;align=center;spacingLeft=50;fontColor=#ffffff;html=1;" parent="1" vertex="1">
          <mxGeometry x="40" y="10" width="1120" height="40" as="geometry" />
        </mxCell>
        <mxCell id="1046" style="edgeStyle=orthogonalEdgeStyle;rounded=0;html=1;labelBackgroundColor=none;startFill=1;startSize=4;endArrow=blockThin;endFill=1;endSize=4;jettySize=auto;orthogonalLoop=1;strokeColor=#4284F3;strokeWidth=2;fontSize=12;fontColor=#000000;align=left;dashed=0;entryX=-0.037;entryY=0.393;entryDx=0;entryDy=0;entryPerimeter=0;startArrow=blockThin;" parent="1" edge="1">
          <mxGeometry relative="1" as="geometry">
            <Array as="points" />
            <mxPoint x="120" y="320" as="sourcePoint" />
            <mxPoint x="299.04673913043484" y="319.9878167581046" as="targetPoint" />
          </mxGeometry>
        </mxCell>
        <mxCell id="1036" value="Devices" style="strokeColor=#dddddd;fillColor=#ffffff;shadow=1;strokeWidth=1;rounded=1;absoluteArcSize=1;arcSize=2;labelPosition=center;verticalLabelPosition=middle;align=center;verticalAlign=bottom;spacingLeft=0;fontColor=#999999;fontSize=12;whiteSpace=wrap;spacingBottom=2;html=1;" parent="1" vertex="1">
          <mxGeometry x="40" y="270.23" width="70" height="100" as="geometry" />
        </mxCell>
        <mxCell id="1037" value="" style="dashed=0;connectable=0;html=1;fillColor=#757575;strokeColor=none;shape=mxgraph.gcp2.desktop_and_mobile;part=1;" parent="1036" vertex="1">
          <mxGeometry x="0.5" width="50" height="33" relative="1" as="geometry">
            <mxPoint x="-25" y="18.5" as="offset" />
          </mxGeometry>
        </mxCell>
        <mxCell id="BTRo54htwc7nsr1ADR_A-1060" style="edgeStyle=orthogonalEdgeStyle;rounded=0;html=1;labelBackgroundColor=none;startFill=0;startSize=4;endArrow=blockThin;endFill=1;endSize=4;jettySize=auto;orthogonalLoop=1;strokeColor=#4284F3;strokeWidth=2;fontSize=12;fontColor=#000000;align=left;dashed=0;startArrow=none;" parent="1" edge="1">
          <mxGeometry relative="1" as="geometry">
            <mxPoint x="170" y="320.23" as="sourcePoint" />
            <mxPoint x="340" y="460" as="targetPoint" />
            <Array as="points">
              <mxPoint x="170" y="460" />
            </Array>
          </mxGeometry>
        </mxCell>
        <mxCell id="BTRo54htwc7nsr1ADR_A-1069" value="" style="verticalLabelPosition=bottom;html=1;verticalAlign=top;align=center;strokeColor=none;fillColor=#00BEF2;shape=mxgraph.azure.github_code;pointerEvents=1;" parent="1" vertex="1">
          <mxGeometry x="850" y="80" width="50" height="50" as="geometry" />
        </mxCell>
        <mxCell id="BTRo54htwc7nsr1ADR_A-1070" value="" style="shape=image;html=1;verticalAlign=top;verticalLabelPosition=bottom;labelBackgroundColor=#ffffff;imageAspect=0;aspect=fixed;image=https://cdn2.iconfinder.com/data/icons/social-media-2285/512/1_Slack_colored_svg-128.png" parent="1" vertex="1">
          <mxGeometry x="670" y="690" width="50" height="50" as="geometry" />
        </mxCell>
        <mxCell id="BTRo54htwc7nsr1ADR_A-1071" value="" style="shape=image;imageAspect=0;aspect=fixed;verticalLabelPosition=bottom;verticalAlign=top;image=data:image/png,iVBORw0KGgoAAAANSUhEUgAAC7AAAAQgCAYAAABlv1FKAAAACXBIWXMAAFiVAABYlQHZbTfTAAAgAElEQVR4nOzd33Hc1tnA4XM8vidTgZgKxFRAelCAmArEVGD6HjNiZnJvugLRFZgpACOqglAViKogUgXnm6OczbdmZIl/Fu8C2OeZ2WFim7vYAxAUxR9e5FJKAgAAAAAAAAAAAACAsX1nhQEAAAAAAAAAAAAAiCBgBwAAAAAAAAAAAAAghIAdAAAAAAAAAAAAAIAQAnYAAAAAAAAAAAAAAEII2AEAAAAAAAAAAAAACCFgBwAAAAAAAAAAAAAghIAdAAAAAAAAAAAAAIAQAnYAAAAAAAAAAAAAAEII2AEAAAAAAAAAAAAACCFgBwAAAAAAAAAAAAAghIAdAAAAAAAAAAAAAIAQAnYAAAAAAAAAAAAAAEII2AEAAAAAAAAAAAAACCFgBwAAAAAAAAAAAAAghIAdAAAAAAAAAAAAAIAQAnYAAAAAAAAAAAAAAEII2AEAAAAAAAAAAAAACCFgBwAAAAAAAAAAAAAghIAdAAAAAAAAAAAAAIAQAnYAAAAAAAAAAAAAAEII2AEAAAAAAAAAAAAACCFgBwAAAAAAAAAAAAAghIAdAAAAAAAAAAAAAIAQAnYAAAAAAAAAAAAAAEII2AEAAAAAAAAAAAAACCFgBwAAAAAAAAAAAAAghIAdAAAAAAAAAAAAAIAQAnYAAAAAAAAAAAAAAEII2AEAAAAAAAAAAAAACCFgBwAAAAAAAAAAAAAghIAdAAAAAAAAAAAAAIAQAnYAAAAAAAAAAAAAAEII2AEAAAAAAAAAAAAACCFgBwAAAAAAAAAAAAAghIAdAAAAAAAAAAAAAIAQAnYAAAAAAAAAAAAAAEII2AEAAAAAAAAAAAAACCFgBwAAAAAAAAAAAAAghIAdAAAAAAAAAAAAAIAQAnYAAAAAAAAAAAAAAEII2AEAAAAAAAAAAAAACCFgBwAAAAAAAAAAAAAghIAdAAAAAAAAAAAAAIAQAnYAAAAAAAAAAAAAAEII2AEAAAAAAAAAAAAACCFgBwAAAAAAAAAAAAAghIAdAAAAAAAAAAAAAIAQAnYAAAAAAAAAAAAAAEII2AEAAAAAAAAAAAAACCFgBwAAAAAAAAAAAAAghIAdAAAAAAAAAAAAAIAQAnYAAAAAAAAAAAAAAEII2AEAAAAAAAAAAAAACCFgBwAAAAAAAAAAAAAghIAdAAAAAAAAAAAAAIAQAnYAAAAAAAAAAAAAAEII2AEAAAAAAAAAAAAACCFgBwAAAAAAAAAAAAAghIAdAAAAAAAAAAAAAIAQAnYAAAAAAAAAAAAAAEII2AEAAAAAAAAAAAAACCFgBwAAAAAAAAAAAAAghIAdAAAAAAAAAAAAAIAQAnYAAAAAAAAAAAAAAEII2AEAAAAAAAAAAAAACCFgBwAAAAAAAAAAAAAghIAdAAAAAAAAAAAAAIAQAnYAAAAAAAAAAAAAAEII2AEAAAAAAAAAAAAACCFgBwAAAAAAAAAAAAAghIAdAAAAAAAAAAAAAIAQAnYAAAAAAAAAAAAAAEII2AEAAAAAAAAAAAAACCFgBwAAAAAAAAAAAAAghIAdAAAAAAAAAAAAAIAQAnYAAAAAAAAAAAAAAEII2AEAAAAAAAAAAAAACCFgBwAAAAAAAAAAAAAghIAdAAAAAAAAAAAAAIAQAnYAAAAAAAAAAAAAAEII2AEAAAAAAAAAAAAACCFgBwAAAAAAAAAAAAAghIAdAAAAAAAAAAAAAIAQAnYAAAAAAAAAAAAAAEII2AEAAAAAAAAAAAAACCFgBwAAAAAAAAAAAAAghIAdAAAAAAAAAAAAAIAQAnYAAAAAAAAAAAAAAEII2AEAAAAAAAAAAAAACCFgBwAAAAAAAAAAAAAghIAdAAAAAAAAAAAAAIAQAnYAAAAAAAAAAAAAAEII2AEAAAAAAAAAAAAACCFgBwAAAAAAAAAAAAAghIAdAAAAAAAAAAAAAIAQAnYAAAAAAAAAAAAAAEII2AEAAAAAAAAAAAAACCFgBwAAAAAAAAAAAAAghIAdAAAAAAAAAAAAAIAQAnYAAAAAAAAAAAAAAEII2AEAAAAAAAAAAAAACCFgBwAAAAAAAAAAAAAghIAdAAAAAAAAAAAAAIAQAnYAAAAAAAAAAAAAAEII2AEAAAAAAAAAAAAACCFgBwAAAAAAAAAAAAAghIAdAAAAAAAAAAAAAIAQAnYAAAAAAAAAAAAAAEII2AEAAAAAAAAAAAAACCFgBwAAAAAAAAAAAAAghIAdAAAAAAAAAAAAAIAQAnYAAAAAAAAAAAAAAEII2AEAAAAAAAAAAAAACCFgBwAAAAAAAAAAAAAghIAdAAAAAAAAAAAAAIAQAnYAAAAAAAAAAAAAAEII2AEAAAAAAAAAAAAACCFgBwAAAAAAAAAAAAAghIAdAAAAAAAAAAAAAIAQAnYAAAAAAAAAAAAAAEII2AEAAAAAAAAAAAAACCFgBwAAAAAAAAAAAAAghIAdAAAAAAAAAAAAAIAQAnYAAAAAAAAAAAAAAEII2AEAAAAAAAAAAAAACCFgBwAAAAAAAAAAAAAghIAdAAAAAAAAAAAAAIAQAnYAAAAAAAAAAAAAAEII2AEAAAAAAAAAAAAACCFgBwAAAAAAAAAAAAAghIAdAAAAAAAAAAAAAIAQAnYAAAAAAAAAAAAAAEII2AEAAAAAAAAAAAAACCFgBwAAAAAAAAAAAAAghIAdAAAAAAAAAAAAAIAQAnYAAAAAAAAAAAAAAEII2AEAAAAAAAAAAAAACCFgBwAAAAAAAAAAAAAghIAdAAAAAAAAAAAAAIAQAnYAAAAAAAAAAAAAAEII2AEAAAAAAAAAAAAACCFgBwAAAAAAAAAAAAAghIAdAAAAAAAAAAAAAIAQAnYAAAAAAAAAAAAAAEII2AEAAAAAAAAAAAAACCFgBwAAAAAAAAAAAAAghIAdAAAAAAAAAAAAAIAQAnYAAAAAAAAAAAAAAEII2AEAAAAAAAAAAAAACCFgBwAAAAAAAAAAAAAghIAdAAAAAAAAAAAAAIAQAnYAAAAAAAAAAAAAAEII2AEAAAAAAAAAAAAACCFgBwAAAAAAAAAAAAAghIAdAAAAAAAAAAAAAIAQAnYAAAAAAAAAAAAAAEII2AEAAAAAAAAAAAAACCFgBwAAAAAAAAAAAAAghIAdAAAAAAAAAAAAAIAQAnYAAAAAAAAAAAAAAEII2AEAAAAAAAAAAAAACCFgBwAAAAAAAAAAAAAghIAdAAAAAAAAAAAAAIAQAnYAAAAAAAAAAAAAAEII2AEAAAAAAAAAAAAACCFgBwAAAAAAAAAAAAAghIAdAAAAAAAAAAAAAIAQAnYAAAAAAAAAAAAAAEII2AEAAAAAAAAAAAAACCFgBwAAAAAAAAAAAAAghIAdAAAAAAAAAAAAAIAQAnYAAAAAAAAAAAAAAEII2AEAAAAAAAAAAAAACCFgBwAAAAAAAAAAAAAghIAdAAAAAAAAAAAAAIAQAnYAAAAAAAAAAAAAAEII2AEAAAAAAAAAAAAACCFgBwAAAAAAAAAAAAAghIAdAAAAAAAAAAAAAIAQAnYAAAAAAAAAAAAAAEII2AEAAAAAAAAAAAAACCFgBwAAAAAAAAAAAAAghIAdAAAAAAAAAAAAAIAQAnYAAAAAAAAAAAAAAEII2AEAAAAAAAAAAAAACCFgBwAAAAAAAAAAAAAghIAdAAAAAAAAAAAAAIAQAnYAAAAAAAAAAAAAAEII2AEAAAAAAAAAAAAACCFgBwAAAAAAAAAAAAAghIAdAAAAAAAAAAAAAIAQAnYAAAAAAAAAAAAAAEII2AEAAAAAAAAAAAAACCFgBwAAAAAAAAAAAAAghIAdAAAAAAAAAAAAAIAQAnYAAAAAAAAAAAAAAEII2AEAAAAAAAAAAAAACCFgBwAAAAAAAAAAAAAghIAdAAAAAAAAAAAAAIAQAnYAAAAAAAAAAAAAAEII2AEAAAAAAAAAAAAACCFgBwAAAAAAAAAAAAAghIAdAAAAAAAAAAAAAIAQAnYAAAAAAAAAAAAAAEII2AEAAAAAAAAAAAAACCFgBwAAAAAAAAAAAAAghIAdAAAAAAAAAAAAAIAQAnYAAAAAAAAAAAAAAEII2AEAAAAAAAAAAAAACCFgBwAAAAAAAAAAAAAghIAdAAAAAAAAAAAAAIAQAnYAAAAAAAAAAAAAAEII2AEAAAAAAAAAAAAACCFgBwAAAAAAAAAAAAAghIAdAAAAAAAAAAAAAIAQAnYAAAAAAAAAAAAAAEII2AEAAAAAAAAAAAAACCFgBwAAAAAAAAAAAAAghIAdAAAAAAAAAAAAAIAQAnYAAAAAAAAAAAAAAEII2AEAAAAAAAAAAAAACCFgBwAAAAAAAAAAAAAgxPeWGQAAAIBtyDmfppQOUkrXKaXbUsqtHQEAAAAAAADLlkspdjEAAAAA4XLONVw/uvO671JKH1dRe3vclFI+2kNsQs75oF048TUuqAAAAAAAABiJCewAAABMVs55jKuufyilXE/8fZ+nlF5t+GnfllKON/ycMIbn7Tl/F7bnnD8fxy1uv2mPj1P/et6GP7gw4Clmc/7IOR+2OH31sT72146rhzzX3X+0urgirY6/teOxHos3G3kTAAAAAAAACydgBwAAAGAuVlH2i9X2tsj40ypqL6Wc2Zu7Iedcw/Tj9jjccLT/JesR/P+81p1jcXX3gGt3EAAAAAAAAPg9ATsAAAAAc7fXguL6ELAvWM65TlQ/SSmdPmaqeoD1YzGt7qaRc16F7derj6J2AAAAAABgVwnYAQAAAIBJyzmvovUXM91Td8P2+p4+1Bi/lHKz3U0DAAAAAACIJWAHAAAAACYp51yj9fOU0rMF7qH6nkxhBwAAAAAAdo6AHQAAAACYlJzzcUrpcqHh+n+VUm4nsikAAAAAAABhBOwAAAAAwCTknPdbuP5iB/bIhwlsAwAAAAAAQDgBOwAAAACwdTnnw5TS1dKnrq8xfR0AAAAAANhJ39ntAAAAAMA25ZxPU0rXOxSvVzcT2AYAAAAAAIBwJrADAAAAAFvT4vXXO7gHPk5gGwAAAAAAAMKZwA4AAAAAbMUOx+vJBHYAAAAAAGBXCdgBAAAAgHA558OU0sUOr7wJ7AAAAAAAwE4SsAMAAAAAoXLO+ymlq5TS3q6ufCnlegKbAQAAAAAAEE7ADgAAAABEO08pPbPqAAAAAAAAu0fADgAAAACEyTkfp5R+3PEVfzuBbQAAAAAAANgKATsAAAAAEOncaqePE9gGAAAAAACArRCwAwAAAAAh2vT1I6udbiawDQAAAAAAAFshYAcAAAAAopxZ6c9MYAcAAAAAAHbW93Y9AAAAADC2nPNBSunFFhf6Q0rpdu1xX4cppf3239b38GwD22ICOwAAAAAAsLME7AAAAACwLGdrwfUmbGpa+EnwKtdg/SqldF0fpZSNTj3POa/C9oP22G+x+30i94cE9AAAAAAAAIsiYAcAAACABSmlTHW6d1TA/i6ldFFKuRzzRb61zm3ifH0cr8Xt9bFXShGwAwAAAAAAO0vADgAAAABEOAp4jZ9KKRdT2JstUr9tE+D/K+e8yen4AAAAAAAAsyNgBwAAAABGlXM+HvklPtVJ5xOePv9fpZSPE9kUAAAAAACArfjOsgMAAAAAIzsc+flP5hCvAwAAAAAAIGAHAAAAAMY3ZsD+91LKtX0IAAAAAAAwDwJ2AAAAAGBsByM9/6eU0oW9BwAAAAAAMB8CdgAAAABgbGMF7JellI/2HgAAAAAAwHwI2AEAAACAsT0b6fkv7TkAAAAAAIB5+d7+AgAAALYh53zwB1OZj+/8/5uU0t0Jyze7PnU553x3ndIX1u62PX6nlHI9/hYuU855P6V0uPbm6v/eb8fozWrdSyn/s+5s3KdSyo1lHccXzjF3z9l3z80f7Y/NyTl/Ps8scU3vHFvrx9X69yzHEwAAAADAggnYAQAAgI1bi9NXce/q48GmJjHnnOuHT2sR5c3qsYR4eC2UPl4L/Dayfm3tVt62j7d3Hjt9kUCLRw/bmh+34/f5Az4/tbW9qg9B+yjErU/UztXHjz3O71o7t7xdOy9f7/r55L7a/jhLKZ20c/3bL1yYNBvtPHq8di49euB61A8f1o6ja1E7AAAAAMAyCNgBAACAR7sTWa8CtUfHj4+wtxbEvVh9es75Q4vdrlrwNotwssV+p209o9bx6M7H9e1JLaC8Xbs4YJHT29tE4OO1Y3lvA0971B4/55x/TSmdR4TsOeeLO1Pin6ru97Oxt/sR3Enggdo5+6Qd5ycbOs6/ZP28/Cr957XfrUXIVwFv95s29LXy5K+PnPNpO/c/KPD+yvPV93TxxKe5LKVcPvB1xzi+nrXHi/T/398v2/a5MAgAAAAAYKZyKcW+AwAAYJJyzmP80PrD1APcnPP5KvjboLellCdPcW3TYU/WovWNTFMf2acWsl9Ocd+34O+0Td2dw3qmDR5P15sKNldKKfk+/93asXy8fvFDgF/GjsFHWNcn7++Rzud/L6Wcj/C8i9MC6ZPgY/1rVufli21O1N7U18p9zzt3Xnu/nfdPv3Lu/1RK2X/Ec9ev1zcP/bw73pVS7hX3t9er7+PlE1/zoeqFQWem+wMAAAAAzM939hksQ98NZ303HNidAADAGOo015xznXT6vk6TbpHaXGLrvba9b2qs2EK7SWgXK9y2NZ3Les5WjdZzzmc555u1Yzk66P2xvn6LV3marYXPc1CPsXqOaefu1xOK19PaeflfUzsvP0a7IOZe2nlode5/9Y1z/1gT8u/j+bfOU/XCiHZ8vdlCvJ7aa97W8/oWXhsAAAAAgCcQsMNy1Cla7/tuOO+7wS/BAQCAjWoTcpcQWB+1kP1qmwHx2gUBr7YcKC5ei3hP26TlVbT+fMvvu77+tYj9yUxd/gNt4vrNPQLpKThau8DoXhO/J+ibAXs7F12089C9z/0PieNHcPIH21QvBPrYLozY9vFV1/HnbX9fBwAAAADgYQTssDz1F2C3fTec2rcAAMCGfVjQgr5oU1vDp/62sPRfM78g4HoC2/BVbcrxZZty/LpFslNSI/araa4ec9WO++uJhMUPddQmsp/Pa7M/+8PwfjUJv52LfnzEc08mYM85n7SLr36e4MVXL1wYBAAAAAAwHwJ2WKb6C6TXfTdc990w61swAwAAk3K7sN2x16b+hl0A3F7rddTr7aJ6UUKdxNumHL+c+IT7ozrJeALbwQKsTV2f2sUaD/Uq53yz5cnjD/XFbW1f30+928Y2g+zPf6+4dmHEbxO/MMLdLQAAAAAAZkLADsv2+RbMfTdc9t0wp1/6AQAA0zT5qduP9DoiYm/T3pcSr0/5WHjTJvHOxfnMQl0mqE34fj3xCzYeoobINWL/w8nmE/O77dzwpPJtrsFeu5PFnC6MeL7gP68AAAAAACyGgB12Q504d9N3w3nfDSYQAQAAj7W0CezrXrfAfBRtGuzVJN4pU1Pj1nN7hcdqgfGrBS7gXpumPYeI/fNFKDOaVP4QU7+TxZc8zzlfTG+zAAAAAABYEbDD7thrv8ysIfuJ/Q4AADzCkgP26qqF5mO4WNBk5FRKMd12s05GPPZYsBbpvlzwW5xLxP6sTcF/P8Kk8tEurlq4H8e8MA0AAAAAgKcRsMPuqdOffuu74brvhrnchhkAAJiAHYiW91povlF1Iu/CAtNPE9iGpanHnovNeZCc82mNdHdg1VYR+9Qv8ljiFPy5M4UdAAAAAGCiBOywu+o0qH/13XDZd4MpbwAAwH29W/hKvWzB+Sadb/ctbdzNwt7PVJzu+gJwf20i+S7FuTViv5rAdmyDARSP97xd6AEAAAAAwMQI2IE6BfC274alBRUAAMA4bndgXTf989HSJmt/nMA2LNHRDCZMMx0XLereJfVr5GwHj8Fd28+bJmAHAAAAAJggATuQ2i/CXvXdUEP2YysCAAB8xS5M397YFPac8/EC40MT2Mdj0jLf1CZKH+3oSp3v4oUeI9wZZJcctTsWAAAAAAAwIQJ2YN2zlNKbvhuu+27wizEAAOBLdiVe3tTU9CVeJGwC+3hcVM5XtXj7YodXaW9H37+/p3saU9gBAAAAACZGwA58SZ3i9b7vhou+G9y+HAAAWHe7I6shYP9jJrCPx5RgvuVkgXd1eKiN3SVjRvz93NNs6ns6AAAAAAAb8r2FBL7ixzqhqO+Gs38M3aWFAgBgIU5zzlOPiie7faWUm5zzQz7lbft4sza5++ZLU7xLKdfpPxOG777/g/Y4bI9nj93+Bziqk45LKU+dNj5mkPzPlNJ1W8/bUspXLy7IOR+uRZAHaxN9V//84J5rawL7eESqfMv5Flbo3drX/XX7uH4Oue+5Y5NOt7QW21LP01cz3v7VMfSxfc/aX/v+eBTw+s/qRQ/f+j4JAAAAAEAcATvwLXWq1+sasaeUash+bcUAAJi5l3bgk9UQ7fnak7xtk9lvV3H6KkZ/jG99bpu8W+PFs5EnER+uxZqPNcb21fU/rRcTPOST7vvft/U9uHPhwMFqnz/0dXmQiJCTmWoX90SE4vUcUwcZXD/gvLHfLr46bufnsafE71rAPjdvW3B/c58/D+ScT9r39DHPgcftuAYAAAAAYAIE7MB91VDhTd8N/2whu4lFAACwuy7aFNXbbcTMbYLqec75om3LWBclHD8lYG8TzzftU92uDUyG/0Ntfb/4M99I72nqPrTj/fm83wYLcDryW6jR8fljLkBq56Sr9jjLOZ+28/NYIXudqH24AxfU1IsJLkopcwivVxc+XD70e1Qp5fOxM/JxI2AHAAAAAJiQ7+wM4IFepJTe991w3neDW5sDAMAOqiFdjc22HQ7WQK6UUmO3X0d6iafG2mP8zHQxZrz+LQuPRT+0Y+mnlNIPpZTcHgellBrK5pTSn9u//zTWRrRJ1vAlJyOuyk+llOOn3D1jXQuuD1oUP5axg/5tetvOQ4cziNfXt/VJ36Paex3rOD8Y6XkBAAAAAHgEATvwWK/qbYD7bljyLwsBAIAZaBH7uxG2dIoh8UbiUv7rbQvS/9xC9dMWYH5xnet0+vrvWwg5xjGXNnDhBAvU7n4w1jTzv7XjeqPaRUZ16vU/R9ru45Ged5t+beejjV1MMKJ3LVzf6La25xrjwrSjEZ4TAAAAAIBHErADT/EspfS674brvhuW+EtDAABgPjYeX040dlvyBPQoNVr/W0rpTy28rMH67UNeu00YPpv1KjA3Y/29yy8BE75P2x0ONu35gu5YsArXTx96PtqCT21i/+GIkf35pFcAAAAAAIAnE7ADm1Cjjjd9N1z23eB2vAAAQLiAAHMSWjjNw9V49u9rk40vn7qWLdwcawo73DXGZP4PEaFw+1ob6w5+c79jwT9nFK6nds47HmNi/7q2Fhs/v+acDeAAAAAAAJgIATuwSS/rNMC+G0xJAgAAtuHtpl9zQdN9d9XnaeullINSyvkIgaiJ+EQZY2DAky/kuK92wccYU9jnGiTXc9MPpZSTmYTrqW1zjdejzntjTXcHAAAAAGACBOzApu2llF713XDbd8OJ1QUAAAKNEQFOarqvoP7efm1x6PHI0/nnEp4yf0cjvIPoO1eMMbV7bufEGvH/tZ2b5hZoXwffBcQdRwAAAAAAFkzADozlWUrpt74brvtumPvtnAEAgHnYhZjYz1ff9udSyukM41CI9G4Lk7/H+JqcyznxU0rpp3Y3iKsJbM8cuEAIAAAAAGDBBOzA2OqEsH/13XDZd4NJgQAAAE9zYP2+bgtRLowq53w8wvPfRO+1Ukr4a07EL/XcXUoZYwL9kjmXAwAAAAAsmIAdiPKy/uKp74YzKw4AAPBofqYCNmFbcfC7DT/flCewv00p/aWUclZK+TiB7QEAAAAAgMkQsAOR9lJKP/fdUEP2MaaHAQAATMkY04af55wvc87ucAXM0aZD7r0JrsGnlNLfSinHOzx1HgAAAAAAvkrADmzDs5TSm74brvtucPt7AABgkUacuFvvcHWTcz4VsgOPdG3hRnNQSrlc6HsDAAAAAICNELAD23SUUnrfd8N53w2iCwAAYIk+jfSe6oXBr1NK/845X7WY3QXCAFs24sVLAAAAAACwGAJ2YApepZRu+244tTcAAICFuQl4Oy9azP4+51wns1/knE9MZwcAAAAAAACmSMAOTMVeDS76brjpu+HYXgEAABYiImBf9zyl9GNK6bc2nV3QDgAAAAAAAEyKgB2YmhpbvOm74arvBre/BwAA5u56y9t/N2i/zjmf5ZwP57+0AAAAAAAAwBx9b68BE1VvgX/cd8NFSuniH0P30Y4CAGBD3qWUpv7ny3ox57MJbAdPVEq5yjl/anedmoKj9kg55w8tsL+q22lfAwAAAAAAABEE7MCU1cDjVUrptO+G838M3aW9BQDABpyVUrY9Ffurcs7n7c/Ci5RzPmiR/qZN9S5ONQ5/OYHtuOtZ266XLbKv23k59a8PAAAAAAAAYN4E7MAc1Kjidd8NpymlGrKLKQAAYMJyzvsppcN6V6X2cX819XtHnU80YF+3txaz18nsFy1mdzcsAAAAAAAAYKO+s5zAjNTg5U3fDZd9N+zbcQAAMB01Ws85n+Wc6wWn/65/dm9T5F/seLyeSim3KaVfJrAp91UvIv45pXRb7wbQLkgAAAAAAAAA2AgBOzBHdSrgbd8N5/YeAABsV875IOd82aL1n3c9Vv+K+vPLu8lu3ZfttYsQbnLOJ1PcQAAAAAAAAGB+BOzAXH0OKfpuqCG7kAIAALagTlyvcXO7yJSvKKV8TCkdzzBiT20i+28554sJbAsAAAAAAAAwcwJ2YO4+hxR9N1z33XBgbwIAwPhyzvs556s2cX3Pkt/PzCP26sc2bR8AAAAAAADg0QTswFIcpZTe991w0XfDvr0KAADjqPF6Suk6pfTCEj9cjdhLKYcppV/mtu3NS5PYAQAAAClzHfEAACAASURBVAAAgKcQsANL82NK6bbvhjN7FgAARlEncD+3tE9TSqk/s/wlpfR2hptfJ7EfT2A7AAAAAAAAgBkSsANLtJdS+rnvhhqyiyoAAGBDcs5nJq9vTinlppRSf2b5IaX068w2/3wC2wAAAAAAAADMkIAdWLJnKaU3fTdc9d1wYE8DAMDj5ZwPRMvjKKVcl1JOU0p/Tin9lFJ6N4PNPso5H05gOwAAAAAAAICZEbADu6BOiHzfd8N53w379jgAADzKebvbESMppdyWUi5KKYdrMfvbCa/36QS2AQAAAAAAAJgZATuwS16llG77bhBZAADAA+Sc64WgL61ZnLWY/Til9KeU0l9TSr9MbDr78QS2AQAAAAAA/o+9ezuO48jWBrpLwXfQA2IsIMYCQpEGkGMBIQuIea8IQhH1LsgCghYIMiCDgAVqWcCmBT9oQf2ROtkzPRAvuPSlLmtFdGCkcwQUdha6uiq/3AnAyAiwA3NTOka+a1NetCkLWwAAwN28Uqf96fv+pu/7y77vT2t39qEE2p/vuzYAAAAAAADA+AiwA3NVghYf2pQv2pQPnQUAAPBNAuwD8o1A+/uI+LzLI22axsJgAAAAAAAA4F4E2IG5ex0RpRv7WZvy07kXAwAAvuKlwgzXWqD9pO/7p2thdpg6CygAAAAAAABG6IlBA4iDiHgbESclyN7ldKEkAADwf7bcYbt0C7+MiGVEXG3g+53URaqzVsLspa5N05xFxNmWa3K8obEDAAAAAAAAZkKAHeC/nkXEuzblEno57XJaqA0AAMTRlkrw777vzzf5Dbccth+dvu/LwoCTpmku6kKBg7nXhMnZ1vsTAAAAAAAAW/SD4gL8zYuI+KNN+aJN+anyAAAwc9v4TPzTpsPrfF3f91e1U/pnZWJiBNgfzoIfAAAAAABgbwTYAb6ubLO/bFM+UyMAAGZs0wHRP/u+v3BC7Vbf92WHKfc2TM2zpmkOjeqoaBQAAAAAAAAIsAN8R9li/22bcgmy604GAMAcbTpseOks2hsLB9inbe0A8MqoPsi+gv/PN/z9rjf8/QAAAAAAgB0QYAe4m2cR8aFN+apNWXc3AAB4uCu124++729KB/w5/u4MwmJLB3E6g+HdRu02vbvGdzVNs/OfyahpJAEAAAAAMGEC7AD38yIiPrYpn7cp2/YaAAAYmxsjxp5s69x71jTNyZQHtS4+2bTnTdPs+rnGNgLJyy18TwAAAAAAYMsE2AEe5k2ZJG1TnkOnNwAAAHisbXVgL86bppn6bmnb2D1h18H/bfw8AfbpsgMiAAAAAMCECbADPNxBRPzSprxoU7atMQAAAHzd1RZrU+7PL/fQUXyXthHU3tmi/KZpynOT51v41ts8r9gvHfsBAAAAACZMgB3g8coE7Ic25cs2Zd2hAACAIZtywJdh22YH9qj35oumaY4meh5sI6j9rGmasy183/9RFxacb+nbb/u8Yg/q3/GzTf/kvu8F2AEAAAAABkKAHWBzXkbExzblszZloRAAAPgyiz73axsdkOG7+r6/iYg/t1ypEnj9o2ma8yF1Yy9h3KZpXpWweNM0pVP8Q8Lo2+o0/rZpmpMtfe+V8y2993yq5xXTs42FFZ+cJwAAAAAAwyHADrB5b8uWxG3K254ABgCAMTre4jEPMhzfNM3hEMK0JUC772Ng9rYVwr7tTUT8v6ZpLmpwfKt/f+X7N01zvBZSLwH6q6Zplk3T9CVUHxG/1ecFZfH7i/seU9/3pdP45y39Cu+2EWKvdbmIiNeb/t7V5Za+L3tUz8WXWzgC3dcBAAAAAAbkicEA2IqDMgFcQ+xnXU67mqQHAIBNK4GvFxv8nn+FSTfZNbeG3c5q9+UhKsf2ummaP2uA96/XHjoHn27hey628D2ZrosaLt+V16vwdP37W9T3tOU9w6xHEbEKnB+uLZY5qvf/D3H0gED/5RbD4O/qIpfTvu8fHfTd0fuyZy27VRZplOvIou/7rdS+njfvtvRbOV8AAAAAAAZEgB1gu0rQ50Ob8vsaZNftCQCAsdn0Z9iDGmJ9VDfwpmlK+POkvh4aIN2VVdj1eX29qb/DpxqoXdRg3XITwdHbaqfn8w0vRFjZdQifEStdxGuQ/Pkefovne/q5X/OQHSO2GWCP2vX6ZdM0v9efdXWf96T6vvyqvi9ve0HR577vdWDfrRer60jTNOXLp/oZ4apeCxYPvY6tFk9s6Tq1YsEVAAAAAMCACLAD7EaZYH7VplxCI+ddTkIeAACMxTYCXyUgeVU7/d7p+9cQ9nF9vRpwt/Uv+Vog71l9ldDo2/hvKPDPGgZcdYtdfb25R70Oa4fn4y2H/AUCua/zLXZYHpN7B9hLYLsufNn2+9/L+irvJZ/r3/nNV/7ej+vXbQaPv+Rixz+Pv1tdw/5n7Ot1rLhe+9df6n6+2s1gV+eODuwAAAAAAAMiwA6wOwc1lHLSpnza5aRTGAAAY7CtgHIJrP1RuzEvvtLp/WkNYR+OLLD+H7Uj8X2tukSvQn1v177fXn6Pr/jU973FudxL3/cXTdOcjfVveoMe0oE9anD77R3+/zblYO296OUuC/Qd5wM6Fr5sPZi+6wUOt/3pegUAAAAAMCwC7AC7Vybpf2tTLp2oSpBdx0IAAAar7/tl7cC7rQ7ez9cC21P0kAD7WLiX4aHOdGF/cIC9BLdPt/iePAbvy7Vpxr8/96djPwAAAADAwPxgQAD25q+Ok23KF23KTw0DAAADZvegh5tygN15wYOULuwRcT3z6j3ovaF2kT7b/OGMxueZ//48jAA7AAAAAMDACLAD7N/riFi2KZ8aCwAABkpQ+eEE2OHLTmoYea4e3EG97/vShf3PmdbtXPd17ul9XfgBAAAAAMCACLADDEOZuP6lTbkE2Y+NCQAAQ9L3/eXMg6aPMdUA++8CgTxGDSHPeiF30zSPeX842eChjMWffd/rvs59OWcAAAAAAAZIgB1gWJ5FxIc25as25UNjAwDAgJwbjPtpmubwMV2WB875wKP1fX8REb/OuJJPH/of9n2/iIifNns4g1YWUb2a0e/LZrzXsR8AAAAAYJgE2AGG6UVEfGxTPm9TfvCENgAAbNC5Luz3NtXu69d9318N4DiYgL7vSxf29zMdy0ftwFYXAMyldseCyNzT57nv8gAAAAAAMGQC7ADD9iYilm3Kc9waHACAAen7/kbX7XubYoC9BALdn7BRfd+fzDjE/igzqd1PteM83MdJ/ewCAAAAAMAACbADDN9BRLxrU160KT+qOxsAADxG3/dnEfGnIt7ZFD+/n+qCzDbUIPZPMyvuRt4jJhxiLwtmfqyd5uE+fu37/lLFAAAAAACGS4AdYDyeR8SHNuXLNuVD4wYAwJ6c1FDhkA3l+Kb2uf1nQVK2qZ5f/4yITzMp9NNNfaMJLgAo58Bx3/dXAzgWxuV93/enxgwAAAAAYNgE2AHG52VEfGxTPmtT3thkNwAA3EXf94saYh+izzVkvffPyU3TlGN4NsgqPcy/awd+2Kr6HnNU/pZnUOnnm/xmawsAxr5Txq/lHKjnAtzH+7qYAwAAAACAgRNgBxivtxGxaFM2MQcAwE71fX9ZO/0OpdP55xp2PVwLWf++52M62vPP35RS23/1fX8+jV+HMej7/qb+Lf+jBFKnPGh1scvGlNB33/erBQBD3y3jthK8/7F0zy7nwLAOjYEr5/pPwusAAAAAAOMhwA4wbqWj47s25as25WNjCQDArtROv+Uz6Kc9Fv3TenD9VuDxao/HVepzVTsh/zribsjva20vB3AszFDf98saSF0F2ccWyL6LrSx2qQsADkcSZP9Uw8dH9b0T7uO6duy/UDUAAAAAgPEQYAeYhhcR8aFN+aJN+dCYAgCwC6XTbw1f/rrjgv9eu4J/Kbi+svfQde2EfFq7If+jdq1/v+fQ//d8rsf4jxIc1gWZIVgLsh/Wv6N977DwGNf1PfNf9e9sa4HttU72q7oNbTHN+9px/VD4mAe4rufPcXmPUEAAAAAAgHF5YrwAJuV1RLxqUz7vcjoztADABFxv4VcYQyB3uYXffbHh7/eXGnA+bZrmPCLKZ9BXEXGw4R/zuXZUL6H0y7uEqkuYrWmaEnJ9+sifvZHzpYbrLuormqZ5WsP/x/XrUd1haR/uXd8N2sp5uUPb+FvdRP03XddBjFM9N//6O6p/Q8drr+cDOMR1n+r5cVW/Luqin527VbfD+j79qi6G33VNrlbvNwNZIDP296Bdel/P5cP62vX5E/V6Va5VF7r1AwAAAACMW9P3vSGECWhTvtrTxBHDVSaGT7ucbPcPAMDO1FDpq7VQ6UNC2derwGcJOu4r9LkPTdMcr4UDj2oA/2iDiwI+17ouVuHaOdWX6VpbFLJ6rf6OtrUwZBVQv1kLQZdnMzdj+puq7znrNdvUs6XbAf4rXbJ3p47rhw3/wJ9rR///qAsi1q9Xx/X/tqnr1uqadVXPIaF1AAAAAICJEGCHiRBg5xuua5BdKAUAgJ1bC5XGWrBt3Xr4czGQjryDdKuWsRYY/JrFWjfvUYVqYZMe8Lezcjssu5xLCLtpmvUa3ee9ZjY1GrJdBdjvoh7Lui99FlhZ1lcIqwMAAAAATJsAO0yEADt38GtEnHU5CQQBAAAATNSQAuwAAAAAAPAlP6gKwGy8KV2s2pRPDTkAAAAAAAAAAACwDwLsAPNyEBG/tCmXIPu3tmwGAAAAAAAAAAAA2DgBdoB5ela2km5TvmpTPnQOAAAAAAAAAAAAALsgwA4wby8i4mOb8lmb8tO5FwMAAAAAAAAAAADYLgF2AIq3EbFsUz5RDQAAAAAAAAAAAGBbBNgBWDmIiHdtyos25WNVAQAAAAAAAAAAADZNgB2A255HxIc25cs25UPVAQAAAAAAAAAAADZFgB2Ar3kZEaUb+1mb8lNVAgAAAAAAAAAAAB5LgB2AbzmIiLc1yK4bOwAAAAAAAAAAAPAoAuwA3MWziBBgBwAAAAAAAAAAAB5FgB0AAAAAAAAAAAAAgJ0QYAcAAAAAAAAAAAAAYCcE2AEAAAAAAAAAAAAA2AkBdgAAAAAAAAAAAAAAdkKAHQAAAAAAAAAAAACAnRBgBwAAAAAAAAAAAABgJwTYAQAAAAAAAAAAAADYCQF2AAAAAAAAAAAAAAB2QoAdgJ1oU35aXqoNzFmb8qETAAAAAAAAAACAORNgB2BXjiJi2aZ8ouLA3LQpH7cpX0WE90AAAAAAAAAAAGbtydwLAMBOHUTEuxpiP+tyulJ+YMpqx/WziHhdf03vewAAAAAAAAAAzJoO7ADsw4uI+NCmfFHDnQCT06ZcguuLtfA6AAAAAAAAAADMngA7APtUQp2LGvIEmIQ25VdtysuIeFt3ngAAAAAAAAAAAKonCgHAnpVw59s25ZOIOO1yujQgwBi1KR9FxHndZQIAAAAAAAAAAPgCAXYAhuJZRPzWpnxdg+wLIwOMQZvy04goO0m8MWAAAAAAAAAAAPBtP6gPAANTOhf/0aZ8UUOhAIPVpnwaEUvhdQAAAAAAAAAAuBsBdgCG6nUJhdZwKMCgtCkftymX4PovEXFgdAAAAAAAAAAA4G6eqBMAA1ZCob/UEPtJl9OVwQL2qU35MCIu6m4RAAAAAAAAAADAPQmwAzAGzyLiQ5vydQ2yL40asEttyk8joiymeavwAADADHwqO+NFxKJ+vTToAAAAAABsigA7AGNSOh5/bFP+NSLOupxujB6wbW3KJxFxXneFAAAAmIrPawH18io73930fb8wwgAAAAAAbJMAOwBj9KZ0Ym9TPu1yujCCwDa0KR/X4PpzBQYAAEas7Gh3sx5W7/v+yoACAAAAALAvAuwAjFXphPyuhNgjogTZTbwCG9GmfFiD6y9VFAAAGKESVP+xfO373u51AAAAAAAMjgA7AGNXOiN/aFP+vQbZl0YUeIg25aflfaS+DhQRAAAYoxpat9AfAAAAAIDB+sHQADARpVPyok35rIZQAe6sTfmkdil8K7wOAAAAAAAAAADbI8AOwJQc1PDpooZRAb6pTfm4Tbl0JnwXEc9UCwAAAAAAAAAAtuuJ+gIwQSWE+q6G2M+6nGybDfyPulPDeUS8VhkAAAAAAAAAANgdHdgBmLIXEfGhTfmihlUBSnj9LCKWwusAAAAAAAAAALB7AuwAzEEJqS5raBWYqTblV23KJbj+NiIOnAcAAAAAAAAAALB7T9QcgJkoYdW3bconEXHa5XRp4GEe2pQPI+Ki7soAAAAAAAAAAADskQA7AHPzLCJ+a1O+rkH2hTMApqlN+WlElJ0X3hhiAAAAAAAAAAAYhh+MAwAzVTox/9GmfF5DrsCEtCmfRsRSeB0AAAAAAAAAAIZFgB2AuSvh1mUNuwIj16Z83KZcguu/RMSB8QQAAAAAAAAAgGF5YjwA4K+Q6y81xH7S5XSlJDAubcqHEXEeES8NHQAAAAAAAAAADJcAOwD817OI+NCmfF2D7Eu1gWFrU34aEWXxyVtDBQAAAAAAAAAAw/eDMQKAv3kRER/blM9qOBYYoDblk4hYCq8DAAAAAAAAAMB4CLADwNeVUOyyhmSBgWhTPm5TXkTEu4g4MC4AAAAAAAAAADAeT4wVAHxTCce+a1M+jYjTLqcr5YL9aFM+jIiziHhtCAAAAAAAAAAAYJwE2AHgbp5HxIc25fclQNvltFQ32I025adlAUl96bgOAAAAAAAAAAAj9oPBA4B7KZ2fF23KZzVUC2xRm/Kr8jcXEW+F1wEAAAAAAAAAYPwE2AHg/g5qmLYE2U/UDzavTfmoTfkqIn6LiGdKDAAAAAAAAAAA0/DEOALAg5VQ7bsaYj/tclooJTxO3dngvO52AAAAAAAAAAAATIwO7ADweC8i4o825YsavgUeoE35LCKWwusAAAAAAAAAADBdAuwAsDkldLusIVzgjtqUj9uUS3D9bUQcqBsAAAAAAAAAAEzXE2MLABtVwrdv25RPIuK0y+lSeeHL2pQPI+Ki7mIAAAAAAAAAAADMgAA7AGzHs4j4rU35OiJOupyW6gz/p035aUSUnQreKAkAAAAAAAAAAMzLD8YbALaqdJb+2KZ8XkO7MGttyqcRsRReBwAAAAAAAACAeRJgB4DdKGHdZQ3vwuy0KR+3KS8i4peIOHAGAAAAAAAAAADAPD0x7gCwMyW0+0ub8klEnHY5XSk9U9emfBgR5xHx0mADAAAAwHQ1TVN2IT2qv+Dx2i96fOuXPnpEk4vrL/y79Wfty/r663/3fb/8wv8/AAAAsGcC7ACwe88j4kOb8u81yO4BOpPTplwmq8qOA2+NLgAAAABMR9M0JZB+WF/lfz+tz7134cUXfsaX/t1fmqYpXz5HxKL+q6u1rzd93y++9t8CAAAA2yPADgD7UzpSv2xT/rl0qO5yujEWTEHdZeAsIp4ZUAAAAAAYr6ZpjmpI/ai+dhVU36SDtZD76utfjTdqwP1T7dq+WPu66PveM3sAAADYEgF2ANi/8qD8tE25dGO/MB6MVZvycQ2uf7XjEQAAAAAwXE3TlK7qr2po/biGv6fuWX39z3PNpmk+rcLstWO7UDsAAABsiAA7AAxDmQR4t+pc3eV0ZVwYizblwxpcf23QAAAAAGBcapf1kxpct6vif62C7S/XOrZ/Wgu0X/V9vxjIsQIAAMCoCLADwLCUDi8f2pTf1yD70vgwZG3KJbh+OpNOTAAAAAAwCbXT+kl9Ca3f3XqovdSxfLleC7RrTgMAAAB3IMAOAMNUOlm/alM+j4jzLifbkjIobcqlG9O5yS0AAAAAGI+maVah9ReGbWNe1Nfbpmk+r8LsEXHR971n+wAAAPAFPygKAAzWQd2WdFHDwrB3bcpHbcpl8uU34XUAAAAAGL6maZ42TXPaNE3Z8fOd8PpWHdTu7L9M+HcEAACAR9OBHQCGr4SEf2tTLtuQnnY5LYwZu9am/LR2XH+t+AAAAAAwfCW4Xp4p19eBIdst3dcBAADg63RgB4DxKF1x/mhTvqhhYtiJNuUywbUUXgcAAACAcSgd1+szvbfC63txPcPfGQAAAO5MgB0AxqeEiJdtymfGjm1qUz5uU17W7W5NcgEAAADAwDVNc9w0jWd6+6f7OgAAAHzDE8UBgFEqEw9v25RPIuKky+nKMLIpbcqHEXFRu/4DAAAAAAPXNE3ZtfPcLoqDsZh7AQAAAOBbBNgBYNyeRcSHNuXrGmRfGk8eqk25THKVzv5vFBEAAAAAxqF0XY+ISx3XB0UHdgAAAPiGHxQHACahdMr+2KZ8XkPIcC+1m/9SeB0AAAAAxqNpmtJ1/YPw+uDowA4AAADfIMAOANNSwsfLGkaG72pTPm5TLpMp70xyAQAAAMA4NE3ztGmahYYUg2W3VAAAAPiGJ4oDAJNTQsjv2pRPI+K0y+nKEHNbm/JhRJTuTC8VBwAAAADGo2mao4i40pBiuPq+F2AHAACAbxBgB4Dpel62jm1T/r0G2T0wpwTXn5bzob5McAEAAADAiDRNcxwRl57tDdqfcy8AAAAAfM8PKgQAk1c6bH9sUz6r4WVmqk35JCLKtsJvTXABAAAAwLg0TVOe733wbG/wbuZeAAAAAPgeAXYAmI8SWl7UEDMz0qZ83KZcthR+FxHPjD0AAAAAjEsNr78zbKNwNfcCAAAAwPc8USEAmJUSXn5XQ+xnXU4epE9Y7bh/HhGv514LYLyapnGtgnE77ft+YQwBAODhhNcBAACAqRFgB4B5elG2mm1Tfl+D7EvnwbS0KZ+VwJjthIEJeGEQYdSeGj4AAHi4pmmOapMKxsNifAAAAPiOHxQIAGatdOZe1LAzE9Cm/KpNuSxIeCu8DgAAAADj1TTNYQ1De843LjdzLwAAAAB8jw7sAECZ/Hjbply2oT3tcrqcfUVGqE151YlJp2IAAAAAGLmmacpuRpfC6+PT9/1i7jUAAACA7xFgBwBWnkXEb23K1zXI7iH7CLQpl4ms0kH/zdxrAQAAAAATUppVPDego/Np7gUAAACAu/hBlQCAW0oH7z/alM9rOJqBalM+jYil8DoAAAAATEfTNGW3zNeGdJSWcy8AAAAA3IUAOwDwNSUUvawhaQakTfm4TblMhPxiC2EAAAAAmI6maQ5r93XGyc6mAAAAcAdPFAkA+IYSjv6lhthPupyuFGt/2pRXk1cv51oDAAAAAJi4C00rRu1m7gUAAACAuxBgBwDu4llEfGhTvq5Bdtug7lCb8tOIKIsI3s7mlwYAAACAmWma5iQiXhj3UdMEBgAAAO7gB0UCAO6hTJ58bFM+q6FqtqxNuUxaLYXXAQAAAGC6mqZ5WndfBAAAAJg8AXYA4CFKmHpZw9VsQZvycZvyIiLe2TIYAAAAACbvzHPA8ev7Xgd2AAAAuIMnigQAPFCZTHnXpnwaEaddTh7Mb0Cb8mGdrHo9+l8GAAAAAPiupmnKM8E3KjV6n+deAAAAALgrAXYA4LGeR8SHNuXfa5B9qaL316Zctgg+rS+dlgAAAABgPs6M9SQs5l4AAAAAuKsfVAoA2JCX5QF9m/JZDWNzR23KJ3Vy463wOgAAAADMR+2+bjfGadDcBQAAAO5IgB0A2KSDGsJe1FA239CmfNSmfBUR7yLimVoBAAAAwOzovj4dAuwAAABwR08UCgDYghLGfldD7GddTleK/F+1Q/25zkoAAAAAMF+6r0/OYu4FAAAAgLvSgR0A2KYXEfGhTfmihrZnr035rHbiMTEFAAAAAPNmF8tpuZl7AQAAAOCuBNgBgF0oYe1lDW/PUpvyqzblElx/GxEHzjoAAAAAmD0B9mnRgR0AAADu6IlCAQA7UkLbb9uUy6TMaZfT5RwK36ZctgG+qN3oAQAAAACiaZpXEfFMJaaj73sd2AEAAOCOBNgBgF0rkzK/tSlflw5DXU7LKY5Am/LTiCgd598M4HAAAAAAgGHRfX1arudeAAAAALiPH1QLANiT0pH8Y5vyeQ17T0ab8mlELIXXAQAAAIDbmqYpz0NfKsyk6L4OAAAA9yDADtNxqrsDMFIl5L2soe9Ra1M+blNeRMQvEXHghAQAAAAAvuCVokzOYu4FAAAAgPsQYIeJ6HJadDkdR8S/IuKTcQVGpoS9f2lTLkH247EdfJvyYZvyZUR8iIjnAzgkAAAAAGC4BNinZzn3AgAAAMB9CLDDxHQ5XXY5HUbEzxHx2fgCI/OshMBLGLyEwod+6G3KT9uUzyLioy1/AQAAAIA78ixxegTYAQAA4B4E2GGiupxKoPIoIt4bY2CEygTOxxIOLyHxIR5+m/JJnZR4O4DDAQAAAABGoGka3denSYAdAAAA7kGAHSasy2nZ5VQClj9GxLWxBkaohMOXNSw+CG3Kx23KVxHxLiIOnFQAAAAAwD0cK9b09H0vwA4AAAD3IMAOM9DldNXlVB6I/hQRn4w5MDIlJP6uTXlRwuP7OvQ25cM25YuI+BARL5xEAAAAAMAD6MA+PX/OvQAAAABwXwLsMCNdTiV4eRQRPxt3YISel/B4CZGXMPmuDr9N+Wmb8llELCLitRMHAAAAAHiIpmmeRsQzxZucm7kXAAAAAO5LgB1mpsvppsupBDH/ERG/G39ghEqIvHRjPyvh8m0efpvyqxpcf1s7wQMAAAAAPNTedphkq66UFwAAAO7niXrBPHU5Lcs2lW3K5WHpee1sDDAWBzVUftKmfNrldLnJ425TPqrvjS+cEQAAAADAhgiwP8yfD+hyfrTDpiQ6sAMAAMA9CbDDzHU5la4QR23KJzWsqcMwMCZlu93f2pSvI6IE2RePOfba0f28dnkHAAAAANikI9X8puu6I2Z5Lfu+30hn86Zpnq7V/rC+1v/dYxuZPOq5NAAAAMyRADvwly6nizbl0sH4LCLeqAowMmWC4Y8yF/HIwz4VXgcAAAAAtsSOj3/3e0SU+anLvu+30sm8ft/vhuGbpjleC7avgu53nRR/1wAAIABJREFUGbPlZo4UAAAA5kOAHfiPLqfyAO+0Tbl0H77wIBUAAAAAAODxmqbRff2/PtedMC/6vh9M+Hut4/vl+r9vmmYVZj+u4fajujvo6r8TYAcAAIB7EmAH/qbLqTxoO25TPq5B9meqBAAAAAAA8GCHSveX0nH9dEyh73qsy/Uu7k3TrDq1H+/36AAAAGCcfjBuwNd0OV11OZUHqj/XbhgAAAAAAADcnw7sEf/u+/7VFDqW931/Uzq2931/NoDDAQAAgNERYAe+q8vprHYGea9aAAAAAAAA9zb3APtPfd+fD+A4AAAAgAEQYAfupMvppsvpJCL+GRHXqgYAAAAAAHBnT2dcqhJevxjAcQAAAAADIcAO3EuX06LL6Tgi/hURn1QPAAAAAADgu17MtES/Cq8DAAAAtwmwAw/S5XRZt7v8OSI+qyIAAAAAAABrSiOkMwUBAAAAbhNgBx6sy+mmy+msBtnfqyQAAAAAAMD/aprmaKYlOev7/mYAxwEAAAAMjAA78GhdTssup5OI+DEirlUUAAAAAADgP57OsBSf+r6/GMBxAAAAAAMkwA5sTJfTVZfTcUT8FBGfVRYAAAAAACAOZ1iC8wEcAwAAADBQAuzAxnU5XdSHsT+rLgAAAAAAMHNzDLBfDuAYAAAAgIESYAe2osvppsvpLCL+ERG/qzIAAAAAAMAs/Nn3/dJQAwAAAF8jwA5sVZfTssvpVUT8GBGfVBsAAAAAAJiZpzP7fa8GcAwAAADAgAmwAzvR5XTV5VS2yPx3RHxWdQAAAAAAYCaOZjbQAuwAAADANwmwAzvV5XQeESXI/qvKAwAAAAAATM7CkAIAAADfIsAO7FyX002X02lE/CMiro0AAAAAAADANPR9vzSUAAAAwLcIsAN70+W07HI6joh/RcQnIwEAAAAAADBqfxo+AAAA4HsE2IG963K67HI6jIifI+KzEQEAAAAAABilG8MGAAAAfI8AOzAYXU5nEVGC7O+NCgAAAAAAMBFHMxrI5QCOAQAAABg4AXZgULqcbrqcTiLinxFxbXQAAAAAAICRO5jRAAqwAwAAAN8lwA4MUpfTosvpOCJ+iohPRgkAAAAAAAAAAABg/ATYgUHrcrqoW2v+HBGfjRYAAAAAAAAAAADAeD0xdsDQdTndRMRZm3IJs59HxEuDBgAwGz8a6p34MIPf8bZ/R8RiWIc0SWoMAAAAAAAA/A8BdmA0upyWEfGqTfm4BtmfGz0AgGnr+/7KEG9f0zRT/xW/ZOH8AgAAAAAAANi9H9QcGJsup6sup6OI+CkiPhtAAAAAAACAQVgaBgAAAOB7BNiB0epyuoiIw4j42SgCAAAAAADsnQA7AAAA8F0C7MCodTnddDmdRcQ/IuLaaAIAAAAAAAAAAAAMlwA7MAldTssup+OI+DEiPhlVAAAAAAAAAAAAgOERYAcmpcvpqsvpMCL+HRGfjS4AAAAAAAAAAADAcAiwA5PU5XQeESXI/qsRBgAAAAAAAAAAABgGAXZgsrqcbrqcTiPinxFxbaQBAAAAAAAAAAAA9kuAHZi8LqdFl9NxRPwrIj4ZcQAAAAAAAAAAAID9EGAHZqPL6bLL6TAifo6Iz0YeAAAAAAAAAAAAYLcE2IHZ6XI6i4ijiHhv9AEAAAAAAAAAAAB2R4AdmKUup2WX00lE/BgR184CAAAAAAAAAAAAgO0TYAdmrcvpqsvpOCJ+iohPc68HAAAAAAAAAAAAwDYJsAP8X5D9IiKOIuJn9QAAAAAAAAAAAADYDgF2gKrL6abL6Swi/hERv6sLAAAAAAAAAAAAwGYJsAPc0uW07HJ6FRE/RsSf6gMAAAAAAAAAAACwGQLsAF/R5XTV5XQUET9FxGd1AgAAAAAAAAAAAHgcAXaA7+hyuoiIw4j4Va0AAAAAAAAAAAAAHk6AHeAOupxuupxOI+IfEXGtZgAAAAAAAAAAAAD3J8AOcA9dTssup+OI+DEiPqkdAAAAAAAAAAAAwN0JsAM8QJfTVZfTYUT8HBGf1RAAAAAAAAAAAADg+wTYAR6hy+ksIkqQ/b06AgAAAAAAAAAAAHybADvAI3U53XQ5nUTEPyPiWj0BAAAAAAAAAAAAvkyAHWBDupwWXU7HEfGviPikrgAAAAAAAAAAAAD/S4AdYMO6nC4j4igifo6Iz+oLAAAAAAAAAAAA8H8E2AG2oMvppsvprAbZ36sxAAAAAAAAAAAAgAA7wFZ1OS27nE4i4seIuFZtAAAAAAAAAAAAYM6eGH2A7etyuoqI4zblEmY/j4gDZQcAANifpmme1l2zisP6iq/882Ndrf33NxGxWP3vvu8XG/w5wD01TVPeB8rzmqO+74/Vj/uo5085b15FxKn39O2odX669s1v/3PUcdiWZX2tW9RrerieA+xf0zTr93C37+fW7/02Zf06ELf+edH3/c2Gfx7wQE3TvFp9Vuz7/lQd2Ydb16n1e5eHPoNcf764qPckV9/5bxiBbzyzfsznmdW5sbq3XfZ9f/seF2AvBNgBdqjL6aJN+bJMaEXEW7UHAADYjrWJoVXIbTU5dLSHRcUvvvZ/aJpm9T9Xu3atgg9XAnGwHTXAsHppMsC9rC16KOfPs7X/9nagmm9ommZ1XV6fkF8Ppn/12rkH3z2Wtev5p7Ww+yoksLq2CzQCPFC9bjxdu1asAlz7ul588+d+5z4vhAxhu75xzyfAzlbs6Tnky/V/qNeez/Wac7X66h5kWNYC6rfPmcNbzxg26W+fW+r5cl3Pk9W5ItQO7JwAO8COdTmVG4SzNuWL2o39pTEAAAB4mLWH/sdrD/+fj7CcL259/WvRc51M+LOG4f4zAWXyCe5nLXR88rXJ4xKMEibiS2oYYXX+fG1CeZM7d4zaWnjj9uvpSK/R9/Fs7Rz5VkhguXZtXwgKAPyfGlQ/Wgt07WMB8iZ96z5vtejpaq0bqs+i8ED1/ePEQmW2qd7rHK29hvYc8qBec/5zL9I0TXmuWJosXmqUsTu3nlmv7o2HtFA7vnCufKqfS8q5crnfQwPmQoAdYE+6nMrDqFdtysc1yD71yRsAAIBHWws0rL5uqzPNkDyvr5drgYfVhMKVDjnwZXWy8KR22ZvDewUbVM+fV/Ucussk86wC7Lc6DK53jfOM8/te3D6nvtD9biFcAkzd2r3d6jW3a8hq0dN6cCzqAub1xcuuB/AVd1xo+h9lYbO/Ke6qLoRffw0tfHxXq+eKb+vzxBJMPvcscXNuLWw4HvECvPI++rq86meS98LswLYJsAPsWZdTeQB11KZcJlPPrAgHAAD4rzpZdFxDhGOdKNqG/0woxN8D7Zc6tDNna533Xt+zDEf1b4h5nz+H9RndfTs3Pt3iYe1NvQ4fDrjD4JTc7n73+dZiNWErYNTqZ7TVy73d162Chqt7PdcDuKVpmtVC0/vudD7Jz+w83loAeRU+nup1qjxPfFNeTdOUBbRndv+4n1ud1cccVr+LVZi9PHe+qAsfPHMGNkqAHWAgupzO25Qv6gTZG+MCAADMUZ0EWAXWbft8d+uB9nd1e+CLGmbXUWlLmqbpJ/Kr/Dj2Ccu1btlnj+i2vtMwQ9M0VxOZFP933/fnAziOR2ma5uQe3da/5GiYv9ndfGF78zl2wh2agxrK+iuYtRZgvLRY7esm9N46Zh9qx8a5+JeulF9Ww4Cre7tj93YP9qXrwaXFy9tXF118mMLv0vf96N+Y6+fV07t2W/+KXd/zjfGZwc99358N4Di2aq1hxurrHHdte1E/t32qQfaLARzT4Nxa3HA80/vkZ3VX0NOmac4F2YFNEmAHGJAup/Ih77RN+bwGDTxoBwAAJm8tePrqAd2z+LIymfJLeQmzcwej7UJXJxJXIYbHhqJ043uYMZ8/mwjBjM6tsPqqs/ocAxtjsx5gtFgNhkN4Z039bLbqjGwh1HYc3Fq8fL22uMn1gC8qYfyxLlquQePTB+yw9SVH9e+Fr1stDJ+UtcD6sUVVf/OsXk9OdGT/W3OVuS5u+JqD9SD7HBa7ANsnwA4wQF1O5QHTcZty+VB87kMxAAAwRbWb2YlO61u3Hmb/vYTddInkltFN4q+9f2wixLAy6g7ae3Q8tgOu4bqzDV9/BtuIooY11gPrAoXTcHux2rlOvMA+CK3v3Yv6+qWG2S9cD/iC0S06rfd8Zxq+7dzzEuAd+3vIWrOMYyHkO1t1ZP+1Btlncx2p7zevZtxh/b7+CrKvdrKb+6IH4HEE2AEGrMvpr44JbcpndWW5QAcAADBqc+12OyB/dW6t2wNf2PKV6nAshWia5lV9DxFiGI7RhGG2tPBhcHQXnKUSsnhXOye+r4vVhAhgN2b7WbqGluyiNSyrMLvrAbeNZtHyqgv0lp4ZjW7x7Z68qs+MRqXeB612eBRCfrg3pYblb3Gq15C1xXfHPsc8yrO5LnoANucHtQQYvi6nszqZ/N5wAQAAY1QmkZqmKZNf/69uNSq8vl/P6jj8vzIudeKG+Rr8+JeJ06Zpyo51v20xvC4U/zCDDwaU4HrTNGXi/cM2w+v7ei+t19iyhfdl0zRlwviP2pn7pfD6LL2uIYJlDYABW9T3/WJO9S3XuqZpzur15p3Q16CtXw9O62Jy5mvQ93zl/Fy753vnmdHejSLoX8+bV/W51uo+6K3w+kasgslnE/hd/lLvm8+bpimf3T6u3TPzeGXRw1VdRAJwLwLsACPR5XTT5VQmHP4ZEdfGDQAAGIO10OAfU+94O2JlXD4Kss/aYCeYhBjGYajvHbeC67tYoLCTOtwKaiwF1vmKZ7UD700NmwouAg+2tiD5Yw0Hut6Mx7P6OWFZg3vu+eZpqJ/Xn9aA7K7u+YQr7+bVUA9sbbHDZW2S8Vt9ruW6tB1v60LpUd5LfOG++Y0FDlvzvIbYLaIG7kWAHWBkupwWXU5l1fNPEfHJ+AEAAEO0h9AgjyfIPl8HQ5uM3FdwXbeoBxvUe8Yer0Fb/zuqk8HrQQ0LO/iegxo2XU6pgyKwGxYkT8pBDe6555unQd3n3Aqu73JRjJDz3ZRnBIPpwl53/zit16P/ZweQnXtZg8mjCLHf6srvvnm3DuoiaiF24M4E2AFGqsvpoj5s+DkiPhtHAABgCGpnPsH1cSsTOwvdWmdnEIGGAXRcd84/zCDCDQNYPLWLv6ObHfwMpumgdlBcChTAxvw51VJakDx5Fi/PzyAWLe8xuP4/x7DrnzlSe+3CvtZpfVF3//jF9Wivng85xP6V0LoFK/vzru7cA/BdAuwAI9bldNPldFYnx94bSwAAYF/qxNJF7cxnQmn8Vt1aF0PqusVW7TW4MoDg+ooww8PstW4zC9kJsPNYz2qg4MquE/Bok3tPrl1uLwTXZ2MVZD8X6p2FvV73SwftfQbX1/j8czc7fxa0Flq/XOu0/nzXx8FXDSrEXpuonNdnSULrw/NaiB24CwF2gAnoclp2OZWuOT9OueMHAAAwTGuTkLaUn54ScvtQJg8FGiZvLwH22iVrCMH1FWGGh9lL3QYYXN96yKPv+6tt/wxmo/zN/FG7oAIzt9YV+aP7ull6U+7p670907Wve77VYuVfhEtH5fmudmhYdc+uzxbLs4GX0ynj5Ow1xF4X2p3W95Q/6vVrCM+S+LLXPlsA3yPADjAhXU5XXU5lwvCniPhsbAEAgG2qnW6uTELOwssaaNjrFtJs1U4DyGvB499MNk7CTsMwusPGpwEcA9PxtmmahW7s8CCT6MBeP+Mvaldk5qvc0/9Srwl24ZqmXX9mH8ouW7c5v+9ua8+A6j2d7tnjVELsl7s88rXO/B/rc2jPkcajfLY4mXsRgK8TYAeYoC6ni/oQ4mfjCwAAbEPtzveHbeVnpUwk/mZ7+cnayZjWSeohdcy+TZjhYXYyeVy7w14MuDvsrkJByx39HObjee3Grjse3M9izPWq19VLCwq55Xndhct93/TsZLHa2mLloQXXub+N3h/X685JPT8+6p49ai/KdWKbv8DaIocbnflH750F08DXCLADTFSX002XUwmU/CMiro0zAACwCWvhU9355utN3S54L9uPszVbDZOvdcz+aOHLNG1zMrIGHc5qcHuIwfWVXYUvrnb0c5if0h3vQmARpq92XV8Kg/EN5b5PN/Zp2er1fQSLlVeEKO9uI9eItecBq478nglMw5tt7NT4hUUOOvNPw5X7TOBLBNgBJq7LadnlVB4u/Wh7YQAA4DHWtpY30cRzYYbp2caihLXg8WLgweMVYYaH28pEZN1qelkXTg1+4npHE7I6sLNNr4ULYLrWdjP5TSCMO3hWu7GfKdYkbOVZzq1dksbwvMhnnHt4TED5VhD5tevOJF1s4llSXeRw1jSNRQ7TVf7+L+deBODvBNgBZqLL6arLqdw8/DsiPht3AADgPuqEtZAD6w5qmOFEVSZjowH2sQWPK+9xD7fp7eWPm6ZZ1MnrMY3LLhZBCLCzbWWh2tI27/BdizGVqP5Nj2VRIcPytoRQLW4av00vWh7JLkm3OY/v5173eWtB5BtB5Fko9+oXD/1F633/agHM2x3uasZ+vGia5lTtgXUC7AAz0+V0XiekfzX2AADA99ROWpd1EgG+5F2dbGL8NhJUHHHw+C+COQ+2kTBMDTyU686HGqLllr7vr9SEHTiondiF2OHrbsZSm7qw8EowjEd4URc32YVr3Db1mf1V7ZQ8psXKK+4x7udOHdjLZ8ZbQWSLw+fjxX2bW6x15/9gYd3snG1jB0hgvATYAWaoy+mmy6msbPxnRFw7BwAAgC+pIc4ymfBSgfiO10Lsk/Co4PaEgsfCmg/zqAnIumDqrAYexnzd2VWoyw6L7IIQO0xA0zTnY11YyODYhWv8HnVNryHlq7pDnwUx8/DsW58F62KGck78IYg8a+ffawZQ7/lP6uIX3fnn61Fd+4HpEWAHmLEup0WXU5lU+1dEfHIuAAAAK2vby+tMxV0JsY/fg4O3NXi8sOBl1h4chqkhqKXdPu5lMaJjZdyE2OHrlkOuzdpuWm8GcDhMi124xutBi5br+8l5DSmPPnRqJ4F7+1u91oLIvwkiU+8Zzr5UiLXF6qvgusUvlK79d9rdAZg+AXYASpD9ssupdMn6WfcmAACgBpRsL89DCLGP273DDCPfOv5rhBke5t7jv9bBcUpdYXe1FbYAO7skxA5f0Pf9YAPsdtNiB9z7jdO973XWFptaDDNffwVNV0HktQ7anhuy7k3ZmW/1z7eC61N6ZsRmnKsjEALsAKzrcjqrk2zvFQYAAOZpLbxuUoGHEmQYrzvvuFAmJW0dz2137WQ4tQ6Ot+wqwD7orr9MUvlseFlDscCArYXX7abFtpV7v4Vrw6jceawmuth0xaK8+3lxK4jsGQBfc1afF10IrvMdz+oCKWDmBNgB+B9dTjddTuWD4o8Rca06AAAwH8LrbJAQ+0jdpbtunbheTHibcGGGh/tuIGYGHRx3FeDSgZ19eFY/KwIDtXZPJ7zOrjyvu3QIsY/Dd98bJr7YdMX5en+CyNzF64j4WL86X/ieMxUCBNgB+KIup6sup9I166eI+KRKAAAwbcLrbMFrnXRG6asT+aW7dt0qfOoT18IMD/fV8P9a1/4pdnBct6vAoAA7+/LcIjX4y+AaANUA8aXwOnsgxD4i31q03DTNq4kvNl1xrgLsny7sgAA7AN/W5XRRJx//P3t3exTHsf4NuPvU+Q7/CMARCEegVU0AxhEIRWD8fauEqva7cQRCERwUwJRQBAdFYIjgERH0U416fVYYSbwsOz3T11VFyefF0mz3aGd65nff7aUYAABM1MoW88LrrNvbHHo2qqPyj/kqHfjy84EPjWwVLszwcLeGYUrX/r8m3MFx41JKn0MIV419bOqhSA0qs7Kma+FejToJsY/HP+Zopdj0P408G7LrFkAddGGHxgmwA/BDi777nH+MFAAATI/wOhtwml+GG+jR+CrMsNKB72VDY6Br6cPdPH9y1/7z0rW/GRss3NFwgiEdu75DHVbWdO5hGFo+B4/NQvW+uleNMR6W+0rFpgBs2k559gg0SoAdAAAAoG0ngg48sVwccWqQR+O6E12DHfhYj+vQS+naf1y69rvGPJ2LqX4wRmGr3EdCq2r6Dj51vaUiL8vuTdTruug0xrhXik3/aHDNJ6wPUA+7e0HDBNgBAAAAGhVjzFt0/mL+2YBnJcxK/XZ14NtoB+3JKZ2z8vnzW8PDsKmu1ALsDO15uWZAi6r4Di5BYUFMapND7MJo9dorz4P+q/gFgAr8YncvaJcAOwAAAECDSsDwtblng34TCh6FnUY78LE+/ynnUcs29eL1zHlLBY6EDWAYpYDkpeGnUm+t/6r13POgLx3oKzgMAL5Q+AaNEmAHAAAAaEwJGdnSmyGcxhi3jTwjIIzJY2zqe04HdmqQC56OzARsVgkG/2HYqdypIicq5tkEQD0E2KFRAuwAAAAA7TnRXZmB5PPu2OAzAoI2PMZGujmmlATYqcVLXXZp0GC7YJSC0FMnHSOw5VylYgLsAPXYsTMGtEmAHQAAAKAhZZv55+acAQm5MQbCDIzFRzNFJXRhh805VZDMiDyLMSpipkaCkgB10YUdGiTADgAAANCIsnW3beapwYlZoHLCDDzGJgvFdGGnFs8VqMHTU5DMSP3mGgEA/IB7BWiQADsAAABAO4SGqUXeFlanVoDHE2CnJq7ttGTj37+lINnfM8bqJMZolyNqIigJUJdn5X4XaIgAOwCbkh/mXhptoHHnrQ8AAMOJMR7o1EdlDgUYqJjvSx5lgy9drTOpiS7sNCOlNEQBUS5I3nKWMVI7CjAAgB+wnoTGCLADsBGLvrso22+/CSFcGXWgMe9DCD8t+u7UxAMwhBISPjb4VGZLgAGYsE0F2HVgpzaHZgTWL8Z4qMCOCfhNoRMV0eUXoD775gTaIsAOwMYs+u7zou+OSpD9vZEHGvAphPBi0Xf7pZAHAIZypFMflfrN1rDUyrnJI21kh4mUkg7s1OYX35+wXqUgWeEnU6G4nlrsmAmA6ih0g8YIsAOwcTnEmcOcOdRZwp0AU5N3mni16Lu9Rd+dmV0AhlQCRL+ZBComjEOtBDB5jL0Njp7na9RGF3am7uOGP9+xgmQm5FnZUQAGVwqEAKjHVoxxk89TgIEJsAMwmBzqzOHOHPIsYU+AKfgzB10WfXdiNgGohHAwtXupUyuVEmZgLOz4RW0OzAisRwnwvDScTMyR4DCVEJIEqI/vZmiIADsAgyshzxxWeGM2gBHLnZd+WvTd4aLvPptIAGoQY5wJOzASOvBRIy/MeIxNbnt9bqaoTO6at29SYC2ODSMTtGUNCAB8wyafpwADE2AHoAo57Lnou9wZ8qcBtt8EeIzLEMKLRd/NFn2n6x0AtdF9nbE40IEP4MEE2KmRADtTtpFngKUg+bkziYl6bScuKiAkCVAfDSWgIQLsAFQlhz9zCDSHQUsoFKBWV3nniEXf7S767swsAVCb8iJY2IGxyB34DswWlRFm4DE2GciyCxg1eqk4jQnbVBMLBclMnXMcALjpmRGBdgiwA1ClHAbNodAQwu8lJApQk3c5jFB2jgCAWrlOMTa2kAemZGdTnyWlpKiaWunCDg+k+zqNeKkLOwNz/gFUqNwLAw0QYAegaou+Oy4PD/40U0AFPoYQfl703cGi73S4A6Ba5QXwSzPEyOzEGAXdqIkwA4+y4e7TdjKkRkIHTNUmngsqSKYVCpkZkjUfQJ18P0MjBNgBqF4OiS76Lj/A+rmERwE2LQcBfl303WzRd+dGH4ARODBJjJQAOzXZWAdtJmtvgx/swmlEhVzXmaonfT4YY9zTfZ2GHGy46A9WOfcA6iTADo0QYAdgNHJoNIdHc4hUVylgQ65CCG9y6GDRd6cGHYAR0cHs6Xz8zs+nqX7oDXopvEBNnI+MyJnJokJbtn6HB7GeoyVbznkG9MzgA1TJOhIa8W8TDcDYlBDp6bzrj8pDrS2TCDyBd3mr3kXf6WIHwKjEGA/cIz/YVemmmEOAn8s/f04pPajD4kpga1a6xux5OXonuVvryQiOkzbsCQbzCLMNnj9TWLte3ehq/Pk7XY4fOq43X4Jvr3TK33adfhKb/HsAo1eK516aSRqTn2McmXQAoNBQAhohwA7AaC367mje9cchhGMPdIE1+liC616uAjBW+2buznJQ7rSEqs5SSmsN/6WUlvcTX91XlGD7fgl0Ccr9kwA7wP3VGmD/WH69WDnG8xJOv/7nlNLnb/y7T+FOa/1bitDyz/MNHueU6JzHFD2owPWOdKLejE8r16IfydeAnQmPRQ12Yoz7KSW7oLJx+b5v5fkNAHXwzBwaIcAOwKgt+i4/YDyYd/1J6c7gRRLwUDnAdrjoO2EpAEYrxphfrP9iBr9rGVo/fmhn9ccqL0avX46WOTsoP0IRX/ySO09uONAI36JzMI+xu6nRy9eWGOOmJ+tyJZi++vPg3Utq8Z0itL3yvbD8sevNj3ley+Q88X3qgTPm0ZY7eiwLppbf5Y8umiod8vdWdvBQ5LQ+B2WtDgAQPB+GNgiwAzAJpVPybN71y20GBT+A+3iTQ2ylKAYAxkz39W/LIbujlFJVxWql63tewxzFGK1n/kcXdmAKNhZgL66eIFD9aSX897mEAS/WvWvJWJRg/nnZETK/UN8v16x9YfZv23Bn08NKt5v/UMExbMrvT9yhfLLK7g/WAvd3udxV6yl21lpVQlTL77OvwtalyGlZ6OS6cH+5kHm31XsMBrXpe3YA7mZPUwmYPgF2ACYld06ed/1peVHx2uwCP/C+dF33UByAqdCt75+qDK7fphzjiSD7NQF2aiHMwGNsOkR7/ogOsB9XOqifTaGL+iaklE6XAcZy/T601fmtNrabRa3n7QA7JAzpfIMFC1NjPXd3n8p64bSWwPNKkdP1OqYE2g/K2kZhwt3sL4vEYIOs+QAABvIvAw8Czsa9AAAgAElEQVTA1OQOyou+y2GPn0o4FeCm/ILjxaLv9oXXAZiK3KlMYOoruQvt7yml3TGE11eV481hhz/rOaqN+6Wxz0u97NLEY2z6/LlLcPdTeV6WdyJ7kZ+fpZRiSil3yD5IKeWirzPh9fvL1++U0l4Z18uxHf8T25v0p4P1saPW912VNVK+du2llI5r7tadr6UppcO8Ji3XhncVHFbtFHEwBO+IAOo0My8wfTqwAzBZJZS6P+/6WenYIMwD5JccR4u+08UFgCkSdvif3EX2YMxbj5et6Q9jjGelg19z28/HGPdLZ1vYtKvSUflozN8jDCoHxI8H6EB883z9VELt5zoib04Z590Y45EdIv8mwA4/kO99W7znv6Or8o7nuKyTRqdcG87KtWG5Y4f5/qdnuTjfPTgbsPxeOXG+AQAMRwd2ADZi3vW7+WeI0V703dmi7/JLklflgQTQptydZ1d4HYAJE2D/4s/SRXYSLyBLgHvW6FpGlx027ap0pd4tnagFGbivd6Ur7P5AYfF8zfg9d3ktXdX3yrk8RJi+ebmbfQjh51JI0LqdGON264MAP2A9d7vlvdnRWMPrq/L9Zbk+7OnI/k3+LvCULsv98vJ7xZoPoF7WkNAAHdgB2JQcXv8w7/r8sPF40Xcbf9C46LuTeddfd1ALIfxm5qEZ1x1Yy64MADBJJRD03OyGVymlkwqOY63y1vMxxhzmPmusS58AO5tyWZ4VnE4hGMXGVdMVtgRwFG1X5MY1vPXdIffKOAC3E9r92uh31fqe8rkOYownZcetnXqPduMO3M/wBC7LDluTe2bExnwsf9DFLTtfLS2fY3lG27ZcwPy5/Jx/YyT2Sjh7z44s32UnL2iAADsAm5a3zT2cd/1hDpRv+g8vwfn85x+Xh4IWkDBd+YFk/q45NccANEDQd6Lh9aVGQ+x5+/htgWKekBADj1FNcJ265fNDiP2aADt8Q/mOEF76n9/z7iG1HMxTyjukxBj3yj3Fy+l+0nuxDmSdPpY1n3sQ7uKqBI7PlkH1h5475bt9VgrU5BGm6VM5Xy6W58xDCu9KY5rlubLvnhBojQA7AEPIN91vc4i9hEs3/tCgdGKezbt+prsFTM5V2enhyNQC0JDWu/VNOry+VELsuRvdf+o4oo3IazYFiaxbDjGcCK7zQDr2c29C7Nd2KzgGqFXr67ml/Fx3v7WgabmfyN3Y8+d+W8Eh1WC/vLuDhxJc5y4+lfvz69D6Onf9yM/wyu97HGPcLWtIhUrjdblyrpyv87ul3AfkZ5+nJcy+X84X+RWgCf8yzQAMKL+s+TDv+tN51w/yAiOH5xd9l//s38vDUWDc3uUXosLrADSo5Q7sb1oKoaaU8guNNxUcyqbYXYB1yiGGFymlmfA6D3BZCqZ28/kjvM59LQOKDT+DtP07fJt73i/fjbOWw6bl/vSFd1XX/J3goVbXfMLr3JTXdH+GEH4NIfxfSmkvpXRY1ndrC6/flH/vlFJeB/xUQvPU77K8c36V5608BzjIO8Q85XdLXjOW+4G9xp7/fos1JDRAgB2AGvySK1XnXX807/rtIY5n0XfHpQvQO2cEjFJ+KPnzou8OFn0nRABAU0oXn1Y7srxPKTVXuFY+82UFh7IJXlSwDkIMPMZXwXUjyWOUTozHjQ6iazrcoqznWt2ZYWkZXj+v43CGU+5VZ0LsdiXg3qz5+Jb3pZHdMoScA+uD7KZVgux78gjVunmuHDx1ccO3lCD7USm2aPmeYKuCYwCemAA7ALXIN5+vS5D9YIhjyqHXHH7NIdjyoAOo33WQYNF3s0XfNf+CA4BmtdqZ7Kp0MW1VK5/9eQXHwHgJMfAYgus8icYK0VYJH8DtWu80Lbx+QxmLlte62VaMUeETd2HNx01XJSC+7LK+X7pmbzyE/C2lG7sQ+/D+PldSSrHSc+VUURcwdQLsANQmd458O+/6s3nXD/LgNodgcxi2LGxbfJkEY3BVtk7bW/SdIAEArWv1pe7BEN2SalFezDZReBtjbD3Uw/0JMfAYgutsQnM7yIQv13RhRPin1u9194XX/6kE1n6v7bg2rPW/G3yfNR+rVoPI26Vz9iBd1u+qhNg/mcWNy+v9P3NDw9VzpeYDLt9xrd8TABMmwA5ArXKXvQ/zrj+Zd/32EMe46LvTEgZ6Y7tGqMq7Elw/yjsnmBoAaPKl7sfaXy5sSCvht90KjoFxuBRi4BEE19mYco612DhjkOe8ULmWCzveuGf7ttwFNoTwvtbj2wABdm4juM7SraH1kY1O67ttbMpqaD2v9w/HVjxX7gmaaGQCtEeAHYDavQwhXMy7fpBgRg7H5pBseYhsKy8YVu5E8GLRdweLvqtm+zYAqMCzBifhsIJjGFx5WdtCtybdWvmR1eCxEAP39fcOX4LrbNhxgwPumg4rYozbja7nQilKbnI3ins6aLjBkmsGqwTXWcqFPa9ys4ORhtb/VkLU8gdPY1ng8GKsofVbuG8CJkmAHYAx2AohvJ53fQ6y7w9xvDksm0OzeZGjuhU2Lj9keLXou9x13YNJAFgRY2yxI9l7W8x/pYXwm+AC36JjNo+xDK7n8+eo5u3lmawWd5PRgR2+1vJ9rqLkOyj3J6126N0pRR607bJ02BZcb1s+D34PIfyUUtrP6/8Jrd+EktfrfXlOtOzKP5nvjYYamQCNEWAHYEx2Qgj/mXf92bzrB9lCPodnF303K5XdrXa9gE26DhMs+k4YBQBuN8h98cBa7Fb6PS2E3wTYuUnHbB7rneA6Q0spXTQYQBBEhK+1WJCc/ako+e5Kd+FWGytZC7ZrtVi5xaI/vljtoH1c7p8npdE1wbpdlmdEfxc4TOvjfcVzcWByBNgBGKPnIYS/5l1/PO/6QV56lDDtblkMAeuXK+R/WvTd0aLvhAkA4Ntae5n7Scetr5Xg5fuajukJbOm8xwods3mMd+Wl9oHzh0q0FsgSRISvtfh34kq32QdpdcxaLfJomWJllt3W/29qHbS/w7n+MO/LDg3LZ0STK3C4RXPPxT0ThukTYAdgzH4LIVzMu36QrSZzqDaHa/OLzwYCI7Ap+cHUi0Xf7S/6roUHDQDwWK0FHrzQuZ0u7LRgGTwWXOchPpbOfQeNvNRmPBTmQdua3FHLvdz9lQBni13YrQPb8qdi5aa9v9FtvaVzwK4kd3dVviuW3dabKghutGO/ewGYOAF2AMZuK4Twx7zrc5B9kE4MOWSbw7Z5UW2LL3iw/MDh90Xf7S76zstbALi71h7g2jb6di3cP7UY7uELwWMe47J0ZJvZwYMaNXhe6p4HX3vW4HgoSn64FruwWwe24X0Jox4KrjfnZhi5yTWbteqd5LX9q1Lkctj48yEFD8CkCLADMBU7IYQP864/nXf9IA+0cuh20Xd7ZVuzK2cW3Nl1V41F3x0bMgC4t62GhuyT8Ortyrhc1nhsayS40B7BYx7juki6dO9T/ETtWmqI0WJYF24VYxykIc/A3lvTPVy5J576uu8m141pWxYr7/tuaM5leZ8ujPw/rX2/39XH8mwonysnilyu+fsCTIoAOwBT80sI4a951x/Nu36Qjj4lhLtbQrnAt+WHDj8t+u5w0XceOADAPTUYeBBA/L6pd9+xXWw7BI95rD9LEEKRNGMhgABtanFHAt3XH6+5+5sYo7Xg9Fx3Ulas3KTl3F+v14SRv2JN8LVlgcvMs6F/0IEdmBQBdgCm6nVe6M27/mCIz5fDuDmUm8O5ZYEF/M91J8VF380WfeeBDAA8XGuBBy81v2/qLy9aDPi0SPCYx/hYtp4/FIRgZAQQoE2thXKvBNDWosUxtBacjlys/CZ//+VOyq0PRmOWYeRdc/9N1rBfrAbXPQu+nXMFmBQBdgCmbCuE8Hbe9efzrh+kO2UO5+aQbl5o2foLvjycXPTd7qLvvKwAgMdrKvDgpcUPTX18dN2btvyC8mfBYx7ocuUFtyJpxqip770YoyAifLHb2Dh4HrwG5V7n0+g/yP20tvvcVL0vwfUja76mCCPfXetFrc4VgEYJsAPQgmchhA/zrj+Zd/0gD4UXfXeWQ7uls8CVs44GvcsvZRZ9d2TyAYAHsKvRj009tLlVwTGwfte7M5UXlK2/rOX+roukSxc/L7gZs9a+/xSlwRetBdhdq9entbFU+DRun0oodV+xaVOEkbkr5wpA4wTYAWjJy/xCaN71R/OuH+SBVwnv7pYwL7Tg+sHDou8OFn2nqwYArFdLXci85PyBFl4E69g6Katbx+vGyUNcF0nnDo5GD4CR0oEdY3k3Cp/GKa/5fk8p7QmlNkUYmbvKDQ1eOVcAEGAHoDW5a9/rEmQ/GOKz5xBvDvPm7dF1kmTCrh88LPpulncgMNEAwCMJsN/N5RgO8hEEF6bB1vE8xrKD44HzhwlxnwNt2mnoU1+6bq+PoB8jsCw2PTZZTRFG5q4+lZ3UTowYAALsALQqPxx+O+/6s3nXDxKCWPTdeQ735gV9A0ET2vF3J8VF33nwAABPq6WOfV5+3Y0AHDW7tHU8j6CDI5PlOxHa0+DOQq7d6/dpah/oO55Xe2TcpNi0be5puSvfDwD8TYAdgNblB1//nXf9ybzrB3loXEK+eyX0e9X6hDBq70tw/SjvNGAqAeDJtdSxD0JjRRtTcl3kWrprCS/xEDo4AjA1re0sJNS4fudT+0CMmmJTAAAeRIAdAL54mR+izrv+aIjxyGHfHPotD67fmRNG5rqrxqLv9hd952UEALB2XoDe2dRDDALs4/Mxr3NTSoOstRk9HRwBYBqs59avqefwMUZrwXopNgUA4MEE2AHgf7ZCCK/nXZ+D7LMhxiWHfxd9d5Bf0Da2BSTjlLtqvFr0Xe667iUEAGyQl7d8g4AntbgMIfyaUpqllBS5cl86OAIwda2t59wPrl9r90iegdRHsSkAAI8mwA4A/7QTQvgw7/qzedcP8lAsh4FzKDiHg8uLW6jNm/zQeNF3J2YGAAbh5S1Qqzel6/qpGeIB3pfzRwdHAKasqfWcgkaYlPzO8o1iUwAA1kGAHQC+7XkI4a951x/Pu357iHEq4eDdEgCAGnwMIfy06LujRd/pqgEAbIKCTpYG2SmLO8trhZ9TSkc68PEAl6WD476QG0ye6zm05dJ8r5/gMANZFpsemQAAANZBgB0Afuy3vMXlvOsPhxirHBLOYeEcGi4Ph2AI12GCRd/NFn0nTAAAbNK50Yaq5SKT31NKs5SSv688xLJrvyAWAEyPZ8msg+KnYeX3Q78qNgUAYN0E2AHgbrZCCH/Mu/583vWDPCjLoeFF3+3nELGuJWzQdRhl0Xe7i74TJgAAAFblIuvdlNKxUeEBdO0HoFW7Zp418J6ITfizFJueGm0AANZNgB0A7udZCOHDvOtP510/yEPmHCLOYeIcKi7hYngq+cFkDq4LowBAfQQegCFd79BUOvAJHnNfuvYD0LqW1nO6NT8dY8tT+lSKTQ+t+QAAeCoC7ADwML+EEP6ad/3RvOu3hxjDEireLSFjWKfrLniLvjtc9J0HkwBQJwF2YCjLDnx2aOIh3pfzR6E0ALRByBrGJRebvkkp7Sk2BQDgqQmwA8DjvM4PYOddfzDEOOZwcQ4Z57BxCR3DY+Quir8u+m626DsPJgEAqI3CjWHpwMdjXK83S9d+QTYAAKjPx1JsemRuAADYBAF2AHi8rRDC23nXn827fjbEeOawcQ4d55fB5aUw3Md1R41F3+0u+u7UyAEAUKkdEzOoQx34eISTlJL1JgAA1OtIsSkAAJskwA4A6/M8hPBh3vUn864fpDNgDh/nEHIOI5dQMvzIu9xRY9F3OmoAAAAAAAAAAABPToAdANbvZQjhfN71gwWCSxh5t4ST4TZ5K8gXi747WPSdjhoAAAAAAECNBtn9GAAAeFoC7ADwNLZCCK/nXX8x7/r9IcZ40Xefczg5h5RLWBmyyxDCq0XfzRZ9d2ZEAAAAAAAAAACATRJgB4CntRNC+M+868/mXb83xFjnkHIOK+fQcgkv0643IYS9Rd+dOAcAAAAAAAAAAIAhCLADwGY8DyH8d971J/Ou3x5izEtoea+EmK/Me1PehxB+WvTdUe7M3/pgAAAAAAAAAAAAwxFgB4DNehlCuJh3/eEQ457DyznEXILs78395H0KIbxY9N3+ou8uWh8MAAAAAAAAAABgeALsALB5WyGEP+Zdn4PssyEOIIeZc6g5h5tLyJlpyR32Xy36bm/Rd2fmFgAAAAAAAAAAqIUAOwAMZyeE8GHe9Wfzrt8d4ihyuDmHnHPYuYSeGb8/Qwi7i747MZcAAAAAAAAAAEBt/m1GAGBwz0MIf827PgePjxZ993nTB5TDzvOuPw0hHIYQXjslRuljCOEgd9dvfSAAgMl5HmNMphUAAAAAAACmQQd2AKjHbyGEi3nXHwxxRDk4v+i7oxDCTyUMzThchhBeLPpuJrwOAAAAAAAAAADUToAdAOqyFUJ4O+/683nXz4Y4shyCzmHoHIou4WjqdBVC+H3Rd7uLvjszRwAAAAAAAAAAwBgIsANAnZ6FED7Mu/503vW7QxxhDkXncHQOSZewNPV4F0LIwfVjcwIAAAAAAAAAAIyJADsA1O2XEELuxn407/rtIY60hKR3S2iaYX0MIfy86LuDRd99NhcAAAAAAAAAAMDYCLADQP22QgivS5D9YIijzWHpHJrO4ekSomazLkMIvy76brbou3NjDwAAAAAAAAAAjJUAOwCMx04I4e2868/mXT8b4qhzeDqHqHOYuoSqeVpXIYQ3i77bXfTdqbEGAAAAAAAAAADGToAdAMbneQjhw7zrT+Zdvz3E0ecwdQ5V53B1CVmzfu9CCHuLvjsytgAAAAAAAAAAwFQIsAPAeL0MIVzMu36wgHMJV++VsDXr8TGE8GLRdweLvrswpgAAAAAAAAAAwJQIsAPAuG2FEF7Puz4H2feH+CQ5ZJ3D1jl0XcLXPEzuZP9q0XezRd+dGUMAAAAAAAAAAGCKBNgBYBp2Qgj/mXf92bzr94b4RDl0ncPXOYQdQrh0Xt3LmxDC7qLvTkZ0zAAAAAAAAAAAAPf2b0MGAJPyPITw33nX/xlCOFr03edNf7gcwp53/WkI4TB3h3d6fdf7PE65i33FxwgAAADwYDHGWfl3d8vPzX9e2iu7DQIAAAAAEyfADgDT9FsI4WDe9TnEfrzpT1iC80fzrs8dxfOf/4vz7CufSnD9rKJjAgAAAHiQGONeCaDvll+3S6MFAAAAAIB/EGAHgOnKHav+mHd97oR+MERYunQW3593/awE2Z81fr5dlc74Gy8qAAAAAFiHGGMOqc9KUH3meQ8AAAAAcF8C7AAwfTshhA/zrn9fun5fbPoTl/D8XgnTHzW6HfSfJbz+uYJjAQAAALiTGGPupr5fwuqz8qwJAAAAAODB/mXoAKAZv4QQ/pp3/dG867eH+NCl8/huCXO34mMI4adF3x0KrwMAAABjkEPrMcbDGGNuSvD/QghvQwgvhdcBAAAAgHUQYAeA9rwOIVzMu/5giE+eQ9w5zJ1D3SXcPVWXIYQXi76bDdH1HgAAAOC+YowHMcbTElr/I4Tw3CACAAAAAOv2byMKAE3ayp2z5l2fg+S5M/jZpgehhLpn867PW0+fTKiD11UI4XjRd0cVHAsAAADAd+Vu6/n5UAjhQId1AAAAAGATdGAHgLY9CyF8mHf9ybzrd4cYiRyeX/Rd/rPflPD3mL0LIewKrwMAAAC1izHuxhhzU4GLsmOf8DoAAAAAsBEC7ABA9jKEcD7v+qN5128PMSIl9L1bQuBj8zGE8POi7w4WfffZGQUAAADUKndcjzHm5zB/lWdCWyYLAAAAANgkAXYAYGmrdNvKQfaDIUYlh79zCDyHwUsovHaXIYRfF303W/TduTMJAAAAqFmM8WCl4zoAAAAAwCAE2AGAm/J20W/nXX827/q9IUYnh8FzKDyHw0tIvDZXIYQ3IYS9Rd+dOoMAAACAmsUYd2OMZ/mZj47rAAAAAMDQBNgBgG95HkL477zrT+Zdvz3EKJVw+F4Ji19VMlPvSnD9KHeMr+B4AAAAAL4pxniYd9wrz3oAAAAAAAYnwA4A/MjLvLX0vOuPhhipHBLPYfESZH834Gx9DCG8WPTdwaLvLgY8DgAAAIAfijFuxxhPQgh/6LoOAAAAANREgB0AuIv8kvP1vOtzkH1/iBHLofEcHs8h8hIm35Tc+f3Vou9mi747c7YAAAAAtYsx7oYQzkpjAgAAAACAqgiwAwD3sRNC+M+868/mXb87xMjlEHkOk+dQeQmXP6U3IYTdRd+dOEsAAACAMYgx5l3szkMIz0wYAAAAAFAjAXYA4CGehxD+mnf98bzrt4cYwRIq3y0h83V7H0L4adF3R4u+++wMAQAAAMaghNfPym56AAAAAABVEmAHAB7jtxDCxbzrD4cYxRwuzyHzHDYPIbxbw295EUJ4sei7/UXfXazh9wMAAADYCOF1AAAAAGAs/m2mAIBHyi9F/5h3/UEI4XDRd2ebHtASNj9Yw+9zsp4jAgAAANgc4XUAAAAAYEx0YAcA1uVZCOHDvOtP512/a1QBAAAAnl6McVt4HQAAAAAYEwF2AGDdfgkh/DXv+qN5128bXQAAAIAnJbwOAAAAAIyKADsA8FRehxAu5l1/YIQBAAAA1i/GeFx2xQMAAAAAGA0BdgDgKeXuX2/nXX827/qZkQYAAABYjxjjfgjhN8MJAAAAAIyNADsAsAnPQwgf5l1/Mu/6XSMOAAAA8HAxxu0QwokhBAAAAADGSIAdANiklyGE83nXH827ftvIAwAAADzISdn5DgAAAABgdATYAYBNyy9XX5cg+77RBwAAALi7GOMshPCLIQMAAAAAxkqAHQAYyk4I4T/zrj+bd/2eWQAAAAC4kxPDBAAAAACMmQA7ADC05yGE/867/mTe9dtmAwAAAOB2McaD0hQAAAAAAGC0BNgBgFq8DCFczLv+0IwAAAAA3OrIsAAAAAAAYyfADgDUZCuE8Me863OQfWZmAAAAAL7QfR0AAAAAmAoBdgCgRvll7Id515/Nu37XDAEAAADovg4AAAAATIMAOwBQs+chhL/mXX887/ptMwUAAAC0KMa4r/s6AAAAADAVAuwAwBj8FkK4mHf9gdkCAAAAGuSZCAAAAAAwGQLsAMBYbIUQ3s67/nze9TOzBgAAALQgxrgbQvjFZAMAAAAAUyHADgCMzbMQwod515/Ou37X7AEAAAATt2+CAQAAAIApEWAHAMYqdx77a971R/Ou3zaLAAAAwEQdmlgAAAAAYEoE2AGAsXsdQjifd/2BmQQAAACmJMa4F0LYMakAAAAAwJT822wCABOQX+S+DSGcmEwAgMm5dJ8HQMNmJh8AAAAAmBoBdgAAAABqdpFSOjJDADTKjnMAAAAAwOT8y5QCAAAAAADUJca4HUJ4ZloAAAAAgKkRYAcAAAAAAKjPzJwAAAAAAFMkwA4AAAAAAFAfAXYAAAAAYJIE2AEAAAAAAOojwA4AAAAATNK/TSsAAAAAAEB1npmSB/k4wmN+XsExAAAAAMDGCLADAAAAAABUJMao+/o/fQohnIcQLkIIZ+V/PU8pfa7pIB8ixpjGd9QAAAAA8HAC7AAAAAAAAHXZMx/hKoRwWn7OphBUBwAAAAC+EGAHAAAAAACoS8sB9hxcP84/QusAQAjB/QAAAEyQADsAAAAAAEBddhudj/chhAPBdQBgxbnBAACA6fmXOQUAAAAAAKjK8wan4/eU0r7wOgAAAABMnwA7AAAAAABAJWKM2w3ORQ6vH1dwHAAAAADABgiwAwAAAAAA1GOvsbl4L7wOAAAAAG0RYAcAAAAAAKjHbkNzcRVCOKjgOAB4Gq0VZQEAAHBHAuwAAAAA4/PZnAHAZLUUYD9OKbmvAVpz0dDn3a7gGKaqpfsFAABgggTYAQAAAMbnvKE5e17BMQDAJrUU9juu4BgANq2lADtPZ6ehsVXsBgAAEyTADgAAAAAAUI+9Rubine7rAJPXyjWNp9VSET8AADRDgB0AAAAAAIBNOzPiAJO3ZYrXL8Y4m9pnAgAA2iPADgAAAAAAUI/tRubitIJjABhCU92kY4y6sK9fK/cKAADAhAmwAwAAAIzP55bmTOABgMY8a+DjXqaUmrqfAVjR2vefsPX6tbZGbqroAwAAWiHADgAAADAyKaXWXt4KPADAtFyYT4BmzEz12jUVYFf0BgAA0yTADgAAAEDtBNgBYFrOzCfQsNYKku2otX67U/tAAABAewTYAQAAAKidwAMAADAJDXaTtp5boxhjLvB+NpkP9GMfaz9AAADgYQTYAQAAAMappZe4ussB0IQY46yRj6oDO9C6y4Y+/06M0ZpufVq5VwAAACZOgB0AAACA2gk7AAAAU3LR2GwKXa9Pa2Op6A0AACZKgB0AAABgnFoKPDyv4BgAAADWpbUA+34FxzAVxhIAAJgEAXYAAACAcWoq8BBj3KvgMAAAANZBB3burayLdxobOR3YAQBgogTYAQAAAMbpc2PzJsAOANNxbi6BxrX2PbgVYzyo4DjGrsUxbO3ZBwAANEOAHQAAAGCcWgs86NgHABORUhJGA1rXWgf20Gj4et32p/VxfiylpOgNAAAmSoAdAAAAYJxaC34196IeAACYpkZDuc9jjLsVHMcolQ72O4197E8VHAMAAPBEBNgBAAAARqjBwEPecn6vguMAAB4pxrhtDAGaDOceVXAMY9ViB/sWdyoAAIBmCLADAAAAjNdlY3Nny3kAmAZFaQAhtNiF/aUu7PcXY5zlDvZjO+41aPHvCAAANEOAHQAAAGC8WutGJsAOAABMRavhXF3Y7+94bAe8JmeT+BQAAMCtBNgBAAAAxqu1l7lbMUYhdgAAYApaDbC/LB3FuYMY42EI4VmjY6UDOwAATJgAOwAAAMB4tdaBPejWBwCTsG0agdallF4eOBUAACAASURBVFruLn0cY3Qt+IEY427Da+DLlNLnCo4DAAB4IgLsAAAAAOPVYjeyHV3YAZiwVorT9io4BoAafGp0Fp4pTr6Tk7wT2QiO8ym0XOABAABNEGAHAAAAGKmUUqvbaR/p1gfAFKWUWgmw71ZwDAA1aDmk+5vi5G+LMR6HEJ7XenwbIMAOAAATJ8AOAAAAMG4fG5y/nRDCYQXHAQA8jAA7wBeth3TfxhjtynFDCfb/VtVBbV7rfzcAAGDyBNgBAAAAxq3VLuyvY4yzCo4DALi/ljvKAqwS0g3hTIj9f0p4/W0txzOQy4Z2pQEAgGYJsAMAAACMW8uBh9MY43YFxwEA63TZwmgqRAMIIaX0OYTwqfGh2BJi/0J4/W8KOwAAoAEC7AAAAADj1vKL3WXQQYh9BGKMuzmQEWPMhQefWx8PgO9opePofgXHMDhBfiAX5hqE67Xdf0uAu0kxxiPh9b8JsAMAQAME2AEAAABGTMe+8EyIvV45lBdjPI4xnocQ/iqBjF9yQEVgD6B5TQfYS2HXSQjhQwWHAwxLgP1/3pb1QzPru/xZY4w5sP26gsOphb8TAADQAAF2AAAAgPFrvTvZM1vO1yHPQYzxcKXLeg7l/Vbm6CbzBXC7Vq7rOy0WM60E13Nh18sKDgkYWEopF3temYe/5fXDeQvXiBjjftl55XkFh1OLj6VQHwAAmDgBdgAAAIDxaz3AHlZC7E13c920EsI7yEG8GGMOXvw3hPDHssv6Dw5HgB2Ao1ZGQHAd+AEdp7+2k4thyzpjt6YDW4dS+JvX8f+5w7qpNf4uAABAIwTYAQAAAMZPgP2L/OL/P6X7dzNbzm/SjQ7rFyWE97YE8XbueSgC7AC3O29oXJ5PvcNu/nwlpCi4DnyP0O7t8vfmX1MJspf11Ekp/NV1/Xb+LgAAQCME2AEAAABGrmyv/d48/i13/76IMTbT1fUp5CKA3NE+j2MO3sUY040O6/cNrN/0rPpBABjG58bG/WRqhWflGnpQir0+CCkCP5JSyqHdKwP1Tcsg++kYd90q14Szsp5SzPRtn1JKF7UeHAAAsF7/Np4AAAAAk3BWQsV8kbuxv85BgRyMCyEcl6A/tyjBwdwRfVZ+3VtDQP2HclfalJIdBAC+1lIH9lCuN/laPbpA4k2lm/xB+SxbdR0dMAL5u/A3E/Vdec37S4zxqnTqPi3h/6qU9dWsXA9cE+7ueCwHCgAAPJ4AOwAAAMA0nJbO2Hwth+JelzD7u1oDDptUwnW75WcZWB8qUDErxRcAFLngqgTzWgq75TDiSUrpoIJjuZcY495KaP3Ji7+ASRNgv7ut0sn8ZYwx/0sfy7oi/5xvung5xri7Ugg8s/PGgzW9VgcAgNYIsAMAAABMQN5mO8b4KYTwzHx+0zLgsOzWd1YC7ZPrzF4CFMsQxbL7326Fwbq9Co4BoEbnDYbfXpYw+H6+r6ngeL5JaB14Cimlc2u6B3tefnLxcv6evgwhXJTr6eeVotmLh15jynf/dvnZW/l1yILgKXln1zQAAGiLADsAAADAdJzown4nf3frCyG8LSGR89Wf2l+cr4QnlkH11RDFmAIvAuwAt2sxwB7KNSwHOI9TSkcVHM+1Uhg2Kz/7gorAE7KmW4+d8rO8lr5e/q6lY/uqj7f8iWNbV03BSesDAAAArRFgBwAAAJgOYYeHeVZ+Xi7/7dKlfdmt77z818v/HB7TuW9VjHH7lhD3MogeVoLpYaIhip08BjrtAfzDecNDksPhr2OMhyGE43x/s+mO7DHG2UpX3Zku68AG5TXdkUKZjWqxYKw2lymls3EdMgAA8FgC7AAAAAATkUPAMcb3IYRfzOmjba0EGW4dz1s69/Eweytb+gPwRcsB9qWt0jH3ddkt5bRcL9a2U0oJqi+LxXbLrzruAoMpa7rT1eJaaEA1u64AAACbI8AOAAAAMC0nAuyMzEyAHeBrKaVzhVJfWe6WkgPtqzulhBs7pHzPrPxvU9zRBJiWIwF2GnJVitQAAIDGCLADAAAATEhK6TTGeBlC2DGvjMSeiQK41ceV3UD42upOKcYImJSU0kWM8Z0QO404XtfOKgAAwLj8y3wBAAAATM6JKWVEZiYL4FbnhgWgWdZ0tCB3Xz820wAA0CYBdgAAAIDpOS4vgmEMtmKMu2YK4B/ODAlAm1JKZ2UnDpgy3dcBAKBhAuwAAAAAE1NeAJ+aV0Zkz2QB/IMAO0DbDlsfACZN93UAAGicADsAAADANB2ZV0ZEgB3ghlKQpvsuQKNSSuchhHfmn4nSfR0AABonwA4AAAAwQSmlC2EHRmRmsgBuZUcVgLYpTGaKLnVfBwAABNgBAAAApkvYgbHQgR3gdmfGBaBdpTD5jVOAiTnSfR0AABBgBwAAAJgoYQdGZCvGuGvCAL6WUjovXUoBaNexawET8jGldGJCAQAAAXYAAACAacthhytzzAjowg5wu1PjAtCu0qn60CnARDiXAQCAawLsAAAAABNWwg5H5pgRmJkkgFvpUgrQuJRSLmZ63/o4MHpvyu4yAAAAAuwAAAAAU5dSyl3YP5loKqcDO8AtStDLdRyAA7trMWKfUkqK6wEAgL8JsAMAAAC04cA8U7nnJgjgm3RhB2hc2V3Luo6xcu4CAABfEWAHAAAAaEDp3vqnuaZmMUZd2AFud6LrLgAppdMQwrvmB4Kx+b08kwAAAPibADsAAABAO/J23Z/MNxUTYAe4Rem6e2psAAghHFrXMSLvU0rHJgwAALhJgB0AAACgEbacZwQE2AG+7cjYALCyrrMzB7W79AwCAAD4FgF2AAAAgIaUbbt/N+dUSoAd4BtSShchhI/GB4CyrjtsfiCoWS6w2C8FFwAAAP8gwA4AAADQmLJ993vzToWemxSA79KFHYBrKaWTEMIbo0GlDkuhBQAAwK0E2AEAAADalLfx/mTuqU2McWZSAG6XUjrThR2ApZRSLmx6Z0CozO+lwAIAAOCbBNgBAAAAGlS28d4v23pDTfbMBsB36cIOwN9SSoqTqcm7susbAADAdwmwAwAAADQqpXQRQpgJsVMZAXaA7yhd2HXbBWDVTIidCrwrBRUAAAA/JMAOAAAA0LCU0nkI4dA5QEUE2AF+7EgBGgBLZYctIXaGJLwOAADciwA7AAAAQONSSichhFetjwPVeGYqAL6v7KJybJgAWBJiZ0DC6wAAwL0JsAMAAAAgxE5VYowzMwLwfSmlIyFFAFYJsTMA4XUAAOBBBNgBAAAAuCbETkX2TAbAnQiMAfCVlRD7eyPDExNeBwAAHkyAHQAAAIC/CbFTCR3YAe4gpXQeQnhjrABYlUPsKaX9HDA2MDyRV8LrAADAYwiwAwAAAPCVEmL/OYRwZWQYiA7sAHeUUjoKIXw0XgDcVALGCpRZp/yc4Nfy3AAAAODBBNgBAAAA+IfS0TV3wf5kdBjAToxx28AD3Nm+wrPJea+7PrAOJWj8wnWCNcjPB2YppVODCQAAPJYAOwAAAAC3WgmxvzdCDEAXdoA7Sil9Ltdsxu+ydLbNRQkCgsBapJTOyv21AmUe6l0Jr58bQQAAYB0E2AEAAAD4phyIKwEqHUDZNEFMgHsogbJXxmzU8v3W3rKzbZlTHZOBtUgpXaSU9qztuKd8HXqVUjooBXMAAABrIcAOAAAAwA+llI5CCD+XrqCwCTqwA9xTSulEiH2UPoYQfsr3W7eEA3VhB9aqrO1eWNtxBx9LYdWJwQIAANZNgB0AAACAOyldQHOo+E8jxgYIsAM8QAmZuVaPQw6PvkgpzXJn5G8c8VnrgwSsX0rpzNqO78hd13//wfUJAADgUQTYAQAAALiz3BU0pXSoYx8bsG2QAR6mXKuFEuuV76FepZR2S4j0ewTYgSexsrbLO219MsoUy67rxwYEAAB4SgLsAAAAANzbSse+N0aPNXtfQn0C7ACPUEKJr4xhVa7KvdNe6ZT/Q6XzrWAp8GTyTlsppby2+718T9GmXFz1q67rAADApgiwAwAAAPAgpWPfUQjhpxI6hof6VAIz/5dS2r9rqA+A7yvfp0Lsw1sG13PH9aN8D3XPI9KFHXhypeP2riLl5lxfo8quIKetDwYAALA5AuwAbMp52XYQAACYmNydLYeOQwgv3PdzD8vQ+k+542MOzDwg0AfAD5QQ+8+66g7ishQQPDS4viTADmzEjSLld0Z90r4qrmp9MAAAgM0TYAdgIxZ993nRd7O8/WB5cQMAAExMSuksbzcuyM53fLwltG57eoAnllI6L111XZ83I4/zq9LN9uSxBVo64gKbVoqUDwTZJ+mxu4IAAACshQA7ABu16LvTRd8tt6DU9QkAACboRpD9vTlu2lUJvOTus/+XzwuhdYBhlK66s/JcjqeRr3kvyvXuZM1/guIDYONuBNm91xm3y1JMLLgOAABUQYAdgEEs+u6odH3SuQMAACaqBNn3V7r2CTu04VMJt/ycUtrOgZd1dJ8FYD1yaC1/R5fvax5vGQj8v3LNO3uiMdWFHRhMCbIv3+u8cg0ZlVwA9WvZFeTYugwAAKiFADsAg1n03edF3x2Urow6CAEAwEStdO0TdpimPJ9/5lBECe/tlY5+560PDECt8nd0/r4uwWsFZvd3tdJtfVOBwKcKxgPcWdnN46RcQ35WqFyty7JG+6nsCqIICgAAqI4AOwCDW/Td2aLvZiXIcmlGAABgmm6EHX4qL9StAcbntsD6YQ5F6OYHMC45eG2XxHt5X55h7j5xt/V/KIVhQqJANUoxVP4u3C7fje/NzqCWxVXLbut5jXbR8HgAAACVE2AHoBqLvjsJIeyVrea9jAEAgAkrXdnzC/Xd0rlPmL1OV2XHrDdl9yyBdYCJKQVmB6W4TJD9n5ah9XwN3C/FeENd/3TQBapUvhv383flSpjde56ntxpa3y4FBa4VAADAKPzbNAFQk0Xf5Zc/R/Ouz2H23AHqFxMEAADTVjqKHuafGGMOtOfgw8x6YBA5rH5efs507ANoR/nOP4gxHuVfy7V5q8FTIBfU5c7qpxWGAPNxvazgOABuVQp8TspPiDEu13b51x2jthafyvXgpKylAQAARimmlMwcANWad/2sBNmfmSV+ZNF30SABAExLjHFWAg/557npXZvLlaD69Y+wOgA3xRgPSuhwykVlVyUIuAytux4CPIFSrLy6vhNov5tPK9epM7tgAQAAUyHADsAozLv+oATZW+z6xB0JsAMATF+Mca+EHfbKj2LX78thh4sSUs+/XqSUzmo+YADqs7JDyv4ECsqWHdaXu43oXgswgBjj9srabvlr6++AVguNz0qhscA6AAAwSQLsAIzGvOu3y9bFr80atxFgBwBoU+nSvlt+8j9vNxRsvyzB9M+rIfUSVNdBFoC1WwkcLn9qvuauFnIJAgJUrhRMLdd1y3+e4k5cVyvrt9VdsVyjAACAZgiwAzA6867PDyxPJvrQkkcQYAcAYNVK+GGvhNqX/3kMAfdlMD2shNJDCd8FAXUAalEC7XsDhg0/rRRyfS7Xys86qwNMx8q15uavodJ3RcuAelhZw52X65MdsQAAgOYFAXYAxmze9bMSZN8xkQQBdgAAHmAlCLG0DEWsuvn/ua9loO6mm/+9jnsATMaNa+xs5XMtQ+53cTPk9/e1UwAQgFV3XNvd5xp0023rutViY9cmAACAexBgB2D05l1/GEI4CiFsmc22CbADAAAAAAAAAADU7V/mB4CxW/TdcemY8c5kAgAAAAAAAAAAQL0E2AGYhEXffV703UEI4ecQwkezCgAAAAAAAAAAAPURYAdgUhZ9d77ou1kI4dcQwqXZBQAAAAAAAAAAgHoIsAMwSYu+O1303W4I4U0I4cosAwAAAAAAAAAAwPAE2AGYtEXfHYUQ9kII78w0AAAAAAAAAAAADEuAHYDJW/TdxaLvDkIIL0IIH804APz/du7oNq7szMLork5gQjAzMDsCkTgBqDsCSyHonQ8icAKgMqAy6AQOQGWgzkDMQIzgDsr2DMaDlq2WyK0q1loJ8HL/9fjhAAAAAAAAAAD8GAJ2AE7GXONurnGR5HWSe5cHAAAAAAAAAACALgE7ACdnrnGb5DzJtesDAAAAAAAAAABAz27bNnMDcLKuxjpLcpPkpV/B8Ztr7E59AwAAAAAAAAAAgEPmBXYATtpc49Nc45ckl0l+P/U9AAAAAAAAAAAA4CkJ2AHgHyH73VzjPMmbJA82AQAAAAAAAAAAgMcnYAeA/2OucZPkLMk7uwAAAAAAAAAAAMDj2m3bZlIA+ANXY+1D9tskL+xzHOYau1PfAAAAAAAAAAAA4JB5gR0AvmCu8WmucZHkMsm9nQAAAAAAAAAAAOD7CNgB4D+Ya9zNNfavsV8nebAXAAAAAAAAAAAAfBsBOwB8pbnG2yT7kP29zQAAAAAAAAAAAODPE7ADwJ8w1/g813iV5OckH2wHAAAAAAAAAAAAX0/ADgDfYK7xca5xkeTXJPc2BAAAAAAAAAAAgP9MwA4A32Gu8VuS8yTXSR5sCQAAAAAAAAAAAF+227bNPADwCK7GOkvyNsnf7PljzDV2p/h/AwAAAAAAAAAAHAsBOwA8squxLpLcJPmrbbsE7AAAAAAAAAAAAIftJ/cBgMc117iba5wneZ3kwbwAAAAAAAAAAADwDwJ2AHgic43bJGdJrm0MAAAAAAAAAAAAyW7bNjMAwBO7Gmsfst8keWnrpzPX2D3X/w0AAAAAAAAAAOA5ELADQNHVWBdJ9i+z/8Xuj0/ADgAAAAAAAAAAcNh+ch8A6Jlr3M019q+xv0nyYHoAAAAAAAAAAABOiYAdAH6AucZNkn3I/s7+AAAAAAAAAAAAnIrdtm2ODQA/0NVY50n2QfsLd/g+c43dMX8/AAAAAAAAAADAc+cFdgD4weYaH+caF0l+TXLvHgAAAAAAAAAAADxXAnYAOBBzjd/mGmdJrpM8uAsAAAAAAAAAAADPjYAdAA7MXONtkn3I/t5tAAAAAAAAAAAAeE4E7ABwgOYan+car5JcJvngRgAAAAAAAAAAADwHAnYAOGBzjbu5xkWS10nu3QoAAAAAAAAAAIBjJmAHgCMw17hNcp7kOsmDmwEAAAAAAAAAAHCMdtu2ORwAHJGrsc6S3CR56W7/aq6xO6TvAQAAAAAAAAAA4F95gR0Ajsxc49Nc45ckl0l+dz8AAAAAAAAAAACOhYAdAI7UXONurnGe5HWSB3cEAAAAAAAAAADg0AnYAeDIzTVuk5wleeeWAAAAAAAAAAAAHLLdtm0OBADPxNVY+5B9H7S/OMWbzjV2B/AZAAAAAAAAAAAAfIEX2AHgGZlrfJprXCS5THLvtgAAAAAAAAAAABwSATsAPENzjbu5xv419jdJHtwYAAAAAAAAAACAQyBgB4BnbK5xk2Qfsr93ZwAAAAAAAAAAAH40ATsAPHNzjc9zjVdJfk7ywb0BAAAAAAAAAAD4UQTsAHAi5hof5xoXSX5Ncu/uAAAAAAAAAAAAtAnYAeDEzDV+m2ucJblO8uD+AAAAAAAAAAAAtAjYAeBEzTXeJjlP8t5vAAAAAAAAAAAAgAYBOwCcsLnGp7nGqySXST74LQAAAAAAAAAAAPCUdtu2GRgA+LursfYx+02S/zrGReYauwP4DAAAAAAAAAAAAL7AC+wAwP+aa9wmOUtybRUAAAAAAAAAAAAemxfYAYA/dDXW2T9fY395LAt5gR0AAAAAAAAAAOCweYEdAPhDc41Pc41fklwm+d1KAAAAAAAAAAAAfC8BOwDwb8017uYa50neJHmwFgAAAAAAAAAAAN9KwA4AfJW5xk2SsyTvLAYAAAAAAAAAAMC32G3bZjgA4E+5Gmsfst8meXFIy801dgfwGQAAAAAAAAAAAHyBF9gBgD9trvFprnGR5DLJvQUBAAAAAAAAAAD4GgJ2AOCbzTXu5hr719ivkzxYEgAAAAAAAAAAgH9HwA4AfLe5xtsk+5D9vTUBAAAAAAAAAAD4EgE7APAo5hqf5xqvkvyc5INVAQAAAAAAAAAA+P8E7ADAo5prfJxrXCR5neTeugAAAAAAAAAAAPwPATsA8CTmGrdJzpNcJ3mwMgAAAAAAAAAAALtt205+BADgaV2NdZbkbZK/PeUfmmvsnBIAAAAAAAAAAOBwCdgBgJqrsS6S3CT561P8TQE7AAAAAAAAAADAYfvJfQCAlrnG3VzjPMnrJA+GBwAAAAAAAAAAOC0CdgCgbq5xm+QsybX1AQAAAAAAAAAATsdu2zbnBgB+mKux9iH7TZKX3/sNc42dSwIAAAAAAAAAABwuATsAcBCuxrpIsn+Z/S/f+j0CdgAAAAAAAAAAgMP2k/sAAIdgrnE319i/xv4myYOjAAAAAAAAAAAAPD8CdgDgoMw1bpLsQ/Z3LgMAAAAAAAAAAPC87LZtc1IA4CBdjXWeZB+0v/ia75tr7FwSAAAAAAAAAADgcHmBHQA4WHONj3ONiyS/Jrl3KQAAAAAAAAAAgOMmYAcADt5c47e5xlmS6yQPLgYAAAAAAAAAAHCcBOwAwNGYa7xNsg/Z37saAAAAAAAAAADA8RGwAwBHZa7xea7xKsllkg+uBwAAAAAAAAAAcDwE7ADAUZpr3M01LpK8TnLvigAAAAAAAAAAAIdPwA4AHLW5xm2S8yRvXBIAAAAAAAAAAOCw7bZtcyIAAAAAAAAAAAAAAJ6cF9gBAAAAAAAAAAAAAKgQsAMAAAAAAAAAAAAAUCFgBwAAAAAAAAAAAACgQsAOAAAAAAAAAAAAAECFgB0AAAAAAAAAAAAAgAoBOwAAAAAAAAAAAAAAFQJ2AAAAAAAAAAAAAAAqBOwAAAAAAAAAAAAAAFQI2AEAAAAAAAAAAAAAqBCwAwAAAAAAAAAAAABQIWAHAAAAAAAAAAAAAKBCwA4AAAAAAAAAAAAAQIWAHQAAAAAAAAAAAACACgE7AAAAAAAAAAAAAAAVAnYAAAAAAAAAAAAAACoE7AAAAAAAAAAAAAAAVAjYAQAAAAAAAAAAAACoELADAAAAAAAAAAAAAFAhYAcAAAAAAAAAAAAAoELADgAAAAAAAAAAAABAhYAdAAAAAAAAAAAAAIAKATsAAAAAAAAAAAAAABUCdgAAAAAAAAAAAAAAKgTsAAAAAAAAAAAAAABUCNgBAAAAAAAAAAAAAKgQsAMAAAAAAAAAAAAAUCFgBwAAAAAAAAAAAACgQsAOAAAAAAAAAAAAAECFgB0AAAAAAAAAAAAAgAoBOwAAAAAAAAAAAAAAFQJ2AAAAAAAAAAAAAAAqBOwAAAAAAAAAAAAAAFQI2AEAAAAAAAAAAAAAqBCwAwAAAAAAAAAAAABQIWAHAAAAAAAAAAAAAKBCwA4AAAAAAAAAAAAAQIWAHQAAAAAAAAAAAACACgE7AAAAAAAAAAAAAAAVAnYAAAAAAAAAAAAAACoE7AAAAAAAAAAAAAAAVAjYAQAAAAAAAAAAAACoELADAAAAAAAAAAAAAFAhYAcAAAAAAAAAAAAAoELADgAAAAAAAAAAAABAhYAdAAAAAAAAAAAAAIAKATsAAAAAAAAAAAAAABUCdgAAAAAAAAAAAAAAKgTsAAAAAAAAAAAAAABUCNgBAAAAAAAAAAAAAKgQsAMAAAAAAAAAAAAAUCFgBwAAAAAAAAAAAACgQsAOAAAAAAAAAAAAAECFgB0AAAAAAAAAAAAAgAoBOwAAAAAAAAAAAAAAFQJ2AAAAAAAAAAAAAAAqBOwAAAAAAAAAAAAAAFQI2AEAAAAAAAAAAAAAqBCwAwAAAAAAAAAAAABQIWAHAAAAAAAAAAAAAKBCwA4AAAAAAAAAAAAAQIWAHQAAAAAAAAAAAACACgE7AAAAAAAAAAAAAAAVAnYAAAAAAAAAAAAAACoE7AAAAAAAAAAAAAAAVAjYAQAAAAAAAAAAAACoELADAAAAAAAAAAAAAFAhYAcAAAAAAAAAAAAAoELADgAAAAAAAAAAAABAhYAdAAAAAAAAAAAAAIAKATsAAAAAAAAAAAAAABUCdgAAAAAAAAAAAAAAKgTsAAAAAAAAAAAAAABUCNgBAAAAAAAAAAAAAKgQsAMAAAAAAAAAAAAAUCFgBwAAAAAAAAAAAACgQsAOAAAAAAAAAAAAAECFgB0AAAAAAAAAAAAAgAoBOwAAAAAAAAAAAAAAFQJ2AAAAAAAAAAAAAAAqBOwAAAAAAAAAAAAAAFQI2AEAAAAAAAAAAAAAqBCwAwAAAAAAAAAAAABQIWAHAAAAAAAAAAAAAKBCwA4AAAAAAAAAAAAAQIWAHQAAAAAAAAAAAACACgE7AAAAAAAAAAAAAAAVAnYAAAAAAAAAAAAAACoE7AAAAAAAAAAAAAAAVAjYAQAAAAAAAAAAAACoELADAAAAAAAAAAAAAFAhYAcAAAAAAAAAAAAAoELADgAAAAAAAAAAAABAhYAdAAAAAAAAAAAAAIAKATsAAAAAAAAAAAAAABUCdgAAAAAAAAAAAAAAKgTsAAAAAAAAAAAAAABUCNgBAAAAAAAAAAAAAKgQsAMAAAAAAAAAAAAAUCFgBwAAAAAAAAAAAACgQsAOAAAAAAAAAAAAAECFgB0AAAAAAAAAAAAAgAoBOwAAAAAAAAAAAAAAFQJ2AAAAAAAAAAAAAAAqBOwAAAAAAAAAAAAAAFQI2AEAAAAAAAAAAAAAqBCwAwAAAAAAAAAAAABQIWAHAAAAAAAAAAAAAKBCwA4AAAAAAAAAAAAAQIWAHQAAAAAAAAAAAACACgE7AAAAAAAAAAAAAAAVAnYAAAAAAAAAAAAAACoE7AAAAAAAAAAAAAAAVAjYAQAAAAAAAAAAAACoELADAAAAAAAAAAAAAFAhYAcAAAAAAAAAAAAAoELADgAAAAAAAAAAAABAhYAdAAAAAAAAAAAAAIAKATsAAAAAAAAAAAAAABUCdgAAAAAAAAAAAAAAKgTsAAAAAAAAAAAA1bV4BwAABo5JREFUAABUCNgBAAAAAAAAAAAAAKgQsAMAAAAAAAAAAAAAUCFgBwAAAAAAAAAAAACgQsAOAAAAAAAAAAAAAECFgB0AAAAAAAAAAAAAgAoBOwAAAAAAAAAAAAAAFQJ2AAAAAAAAAAAAAAAqBOwAAAAAAAAAAAAAAFQI2AEAAAAAAAAAAAAAqBCwAwAAAAAAAAAAAABQIWAHAAAAAAAAAAAAAKBCwA4AAAAAAAAAAAAAQIWAHQAAAAAAAAAAAACACgE7AAAAAAAAAAAAAAAVAnYAAAAAAAAAAAAAACoE7AAAAAAAAAAAAAAAVAjYAQAAAAAAAAAAAACoELADAAAAAAAAAAAAAFAhYAcAAAAAAAAAAAAAoELADgAAAAAAAAAAAABAhYAdAAAAAAAAAAAAAIAKATsAAAAAAAAAAAAAABUCdgAAAAAAAAAAAAAAKgTsAAAAAAAAAAAAAABUCNgBAAAAAAAAAAAAAKgQsAMAAAAAAAAAAAAAUCFgBwAAAAAAAAAAAACgQsAOAAAAAAAAAAAAAECFgB0AAAAAAAAAAAAAgAoBOwAAAAAAAAAAAAAAFQJ2AAAAAAAAAAAAAAAqBOwAAAAAAAAAAAAAAFQI2AEAAAAAAAAAAAAAqBCwAwAAAAAAAAAAAABQIWAHAAAAAAAAAAAAAKBCwA4AAAAAAAAAAAAAQIWAHQAAAAAAAAAAAACACgE7AAAAAAAAAAAAAAAVAnYAAAAAAAAAAAAAACoE7AAAAAAAAAAAAAAAVAjYAQAAAAAAAAAAAACoELADAAAAAAAAAAAAAFAhYAcAAAAAAAAAAAAAoELADgAAAAAAAAAAAABAhYAdAAAAAAAAAAAAAIAKATsAAAAAAAAAAAAAABUCdgAAAAAAAAAAAAAAKgTsAAAAAAAAAAAAAABUCNgBAAAAAAAAAAAAAKgQsAMAAAAAAAAAAAAAUCFgBwAAAAAAAAAAAACgQsAOAAAAAAAAAAAAAECFgB0AAAAAAAAAAAAAgAoBOwAAAAAAAAAAAAAAFQJ2AAAAAAAAAAAAAAAqBOwAAAAAAAAAAAAAAFQI2AEAAAAAAAAAAAAAqBCwAwAAAAAAAAAAAABQIWAHAAAAAAAAAAAAAKBCwA4AAAAAAAAAAAAAQIWAHQAAAAAAAAAAAACACgE7AAAAAAAAAAAAAAAVAnYAAAAAAAAAAAAAACoE7AAAAAAAAAAAAAAAVAjYAQAAAAAAAAAAAACoELADAAAAAAAAAAAAAFAhYAcAAAAAAAAAAAAAoELADgAAAAAAAAAAAABAhYAdAAAAAAAAAAAAAIAKATsAAAAAAAAAAAAAABUCdgAAAAAAAAAAAAAAKgTsAAAAAAAAAAAAAABUCNgBAAAAAAAAAAAAAKgQsAMAAAAAAAAAAAAAUCFgBwAAAAAAAAAAAACgQsAOAAAAAAAAAAAAAECFgB0AAAAAAAAAAAAAgAoBOwAAAAAAAAAAAAAAFQJ2AAAAAAAAAAAAAAAqBOwAAAAAAAAAAAAAAFQI2AEAAAAAAAAAAAAAqBCwAwAAAAAAAAAAAABQIWAHAAAAAAAAAAAAAKBCwA4AAAAAAAAAAAAAQIWAHQAAAAAAAAAAAACACgE7AAAAAAAAAAAAAAAVAnYAAAAAAAAAAAAAACoE7AAAAAAAAAAAAAAAVAjYAQAAAAAAAAAAAACoELADAAAAAAAAAAAAAFAhYAcAAAAAAAAAAAAAoELADgAAAAAAAAAAAABAhYAdAAAAAAAAAAAAAIAKATsAAAAAAAAAAAAAABUCdgAAAAAAAAAAAAAAKgTsAAAAAAAAAAAAAABUCNgBAAAAAAAAAAAAAKgQsAMAAAAAAAAAAAAAUCFgBwAAAAAAAAAAAACgQsAOAAAAAAAAAAAAAECFgB0AAAAAAAAAAAAAgAoBOwAAAAAAAAAAAAAAFQJ2AAAAAAAAAAAAAAAqBOwAAAAAAAAAAAAAAFQI2AEAAAAAAAAAAAAAqBCwAwAAAAAAAAAAAABQIWAHAAAAAAAAAAAAAKBCwA4AAAAAAAAAAAAAQIWAHQAAAAAAAAAAAACACgE7AAAAAAAAAAAAAAAVAnYAAAAAAAAAAAAAACoE7AAAAAAAAAAAAAAAVAjYAQAAAAAAAAAAAACoELADAAAAAAAAAAAAAFAhYAcAAAAAAAAAAAAAoELADgAAAAAAAAAAAABAhYAdAAAAAAAAAAAAAIAKATsAAAAAAAAAAAAAAE8vyX8DGQJgGDnnMMcAAAAASUVORK5CYII=;" parent="1" vertex="1">
          <mxGeometry x="870" y="260" width="114.35" height="40.46" as="geometry" />
        </mxCell>
        <mxCell id="128t403l0EzsuIgGotzG-1052" value="" style="edgeStyle=none;orthogonalLoop=1;jettySize=auto;html=1;rounded=0;dashed=1;strokeWidth=3;strokeColor=#00CC66;endArrow=none;endFill=0;entryX=0.975;entryY=0.47;entryDx=0;entryDy=0;entryPerimeter=0;" parent="1" target="BTRo54htwc7nsr1ADR_A-1071" edge="1">
          <mxGeometry width="80" relative="1" as="geometry">
            <mxPoint x="1020" y="280" as="sourcePoint" />
            <mxPoint x="990" y="280" as="targetPoint" />
            <Array as="points" />
          </mxGeometry>
        </mxCell>
        <mxCell id="128t403l0EzsuIgGotzG-1053" value="" style="edgeStyle=none;orthogonalLoop=1;jettySize=auto;html=1;rounded=0;dashed=1;strokeWidth=3;strokeColor=#00CC66;endArrow=none;endFill=0;" parent="1" edge="1">
          <mxGeometry width="80" relative="1" as="geometry">
            <mxPoint x="870" y="280" as="sourcePoint" />
            <mxPoint x="840" y="280" as="targetPoint" />
            <Array as="points" />
          </mxGeometry>
        </mxCell>
        <mxCell id="128t403l0EzsuIgGotzG-1062" value="" style="strokeColor=#dddddd;shadow=1;strokeWidth=1;rounded=1;absoluteArcSize=1;arcSize=2;" parent="1" vertex="1">
          <mxGeometry x="910" y="60" width="250" height="60" as="geometry" />
        </mxCell>
        <mxCell id="128t403l0EzsuIgGotzG-1063" value="&lt;font style=&quot;font-size: 9px;&quot;&gt;&lt;font style=&quot;font-size: 9px;&quot; color=&quot;#000000&quot;&gt;JerellK83/Cloud-Resume-Challenge-Infra&lt;/font&gt;&lt;br&gt;&lt;/font&gt;Infrastructure/Backend Code" style="editableCssRules=.*;html=1;fontColor=#999999;shape=image;verticalLabelPosition=middle;verticalAlign=middle;labelPosition=right;align=left;spacingLeft=20;part=1;points=[];imageAspect=0;image=data:image/svg+xml,PHN2ZyB4bWxucz0iaHR0cDovL3d3dy53My5vcmcvMjAwMC9zdmciIHhtbG5zOnY9Imh0dHBzOi8vdmVjdGEuaW8vbmFubyIgd2lkdGg9IjIwIiBoZWlnaHQ9IjExLjI1OTk5OTI3NTIwNzUyIiBmaWxsLXJ1bGU9ImV2ZW5vZGQiIHZpZXdCb3g9IjAgMCAyMCAxMS4yNTk5OTkyNzUyMDc1MiI+JiN4YTsJPHN0eWxlIHR5cGU9InRleHQvY3NzIj4mI3hhOwkuc3Qwe2ZpbGw6IzQyODVmNDt9JiN4YTsJLnN0MXtmaWxsOiM2NjlkZjY7fSYjeGE7CS5zdDJ7ZmlsbDojYWVjYmZhO30mI3hhOwk8L3N0eWxlPiYjeGE7CTxwYXRoIGNsYXNzPSJzdDEiIGQ9Ik00LjY4IDEuNDJIMi40MkwwIDUuNjdsMi40MiA0LjI2aDIuMjZMMi4yNyA1LjY3eiIvPiYjeGE7CTxwYXRoIGNsYXNzPSJzdDAiIGQ9Ik0wIDUuNjdsMS4xMSAxLjk3IDEuNDYtMS40NS0uMy0uNTJ6Ii8+JiN4YTsJPHBhdGggY2xhc3M9InN0MiIgZD0iTTEzIDBINy4xMkwzLjgxIDUuNjNsMy4zMSA1LjU5SDEzbDMuMjktNS41OXptLTIuOTMgOC4zNmEyLjY0IDIuNjQgMCAxIDEgMi42Ni0yLjY0IDIuNjUgMi42NSAwIDAgMS0yLjY2IDIuNjR6TTIuNDIgMS40MkwwIDUuNjlsMS4xMSAxLjk3IDEuMTYtMS45NyAyLjQxLTQuMjd6Ii8+JiN4YTsJPHBhdGggY2xhc3M9InN0MSIgZD0iTTEzIC4wOGgwbC0xLjcgMy4zM2EyLjY2IDIuNjYgMCAwIDEtMS4yNSA1IDIuNjIgMi42MiAwIDAgMS0xLjE4LS4yN2wtMS43NSAzLjEySDEzbDMuMjktNS42M3ptMi4zMiA5Ljg1aDIuMjdMMjAgNS42N2wtMi40MS00LjI1aC0yLjI3bDIuNDEgNC4yNXoiPiYjeGE7CTxwYXRoIGNsYXNzPSJzdDAiIGQ9Ik0yMCA1LjY3TDE4Ljg5IDMuN2wtMS40NiAxLjQ2LjMuNTF6Ii8+JiN4YTsJPHBhdGggY2xhc3M9InN0MiIgZD0iTTE3LjU5IDkuOTNMMjAgNS42NWwtMS4xMS0xLjk3LTEuMTYgMS45Ny0yLjQxIDQuMjh6Ii8+JiN4YTs8L3BhdGg+PC9zdmc+;" parent="128t403l0EzsuIgGotzG-1062" vertex="1">
          <mxGeometry width="30" height="16" relative="1" as="geometry">
            <mxPoint x="15" y="22" as="offset" />
          </mxGeometry>
        </mxCell>
        <mxCell id="128t403l0EzsuIgGotzG-1064" value="" style="strokeColor=#dddddd;shadow=1;strokeWidth=1;rounded=1;absoluteArcSize=1;arcSize=2;" parent="1" vertex="1">
          <mxGeometry x="910" y="120" width="250" height="60" as="geometry" />
        </mxCell>
        <mxCell id="128t403l0EzsuIgGotzG-1065" value="&lt;font style=&quot;font-size: 9px;&quot;&gt;&lt;font style=&quot;font-size: 9px;&quot; color=&quot;#000000&quot;&gt;JerellK83/Cloud-Resume-Challenge-frontend&lt;/font&gt;&lt;br&gt;&lt;/font&gt;Frontend Files" style="editableCssRules=.*;html=1;fontColor=#999999;shape=image;verticalLabelPosition=middle;verticalAlign=middle;labelPosition=right;align=left;spacingLeft=20;part=1;points=[];imageAspect=0;image=data:image/svg+xml,PHN2ZyB4bWxucz0iaHR0cDovL3d3dy53My5vcmcvMjAwMC9zdmciIHhtbG5zOnY9Imh0dHBzOi8vdmVjdGEuaW8vbmFubyIgd2lkdGg9IjIwIiBoZWlnaHQ9IjExLjI1OTk5OTI3NTIwNzUyIiBmaWxsLXJ1bGU9ImV2ZW5vZGQiIHZpZXdCb3g9IjAgMCAyMCAxMS4yNTk5OTkyNzUyMDc1MiI+JiN4YTsJPHN0eWxlIHR5cGU9InRleHQvY3NzIj4mI3hhOwkuc3Qwe2ZpbGw6IzQyODVmNDt9JiN4YTsJLnN0MXtmaWxsOiM2NjlkZjY7fSYjeGE7CS5zdDJ7ZmlsbDojYWVjYmZhO30mI3hhOwk8L3N0eWxlPiYjeGE7CTxwYXRoIGNsYXNzPSJzdDEiIGQ9Ik00LjY4IDEuNDJIMi40MkwwIDUuNjdsMi40MiA0LjI2aDIuMjZMMi4yNyA1LjY3eiIvPiYjeGE7CTxwYXRoIGNsYXNzPSJzdDAiIGQ9Ik0wIDUuNjdsMS4xMSAxLjk3IDEuNDYtMS40NS0uMy0uNTJ6Ii8+JiN4YTsJPHBhdGggY2xhc3M9InN0MiIgZD0iTTEzIDBINy4xMkwzLjgxIDUuNjNsMy4zMSA1LjU5SDEzbDMuMjktNS41OXptLTIuOTMgOC4zNmEyLjY0IDIuNjQgMCAxIDEgMi42Ni0yLjY0IDIuNjUgMi42NSAwIDAgMS0yLjY2IDIuNjR6TTIuNDIgMS40MkwwIDUuNjlsMS4xMSAxLjk3IDEuMTYtMS45NyAyLjQxLTQuMjd6Ii8+JiN4YTsJPHBhdGggY2xhc3M9InN0MSIgZD0iTTEzIC4wOGgwbC0xLjcgMy4zM2EyLjY2IDIuNjYgMCAwIDEtMS4yNSA1IDIuNjIgMi42MiAwIDAgMS0xLjE4LS4yN2wtMS43NSAzLjEySDEzbDMuMjktNS42M3ptMi4zMiA5Ljg1aDIuMjdMMjAgNS42N2wtMi40MS00LjI1aC0yLjI3bDIuNDEgNC4yNXoiPiYjeGE7CTxwYXRoIGNsYXNzPSJzdDAiIGQ9Ik0yMCA1LjY3TDE4Ljg5IDMuN2wtMS40NiAxLjQ2LjMuNTF6Ii8+JiN4YTsJPHBhdGggY2xhc3M9InN0MiIgZD0iTTE3LjU5IDkuOTNMMjAgNS42NWwtMS4xMS0xLjk3LTEuMTYgMS45Ny0yLjQxIDQuMjh6Ii8+JiN4YTs8L3BhdGg+PC9zdmc+;" parent="128t403l0EzsuIgGotzG-1064" vertex="1">
          <mxGeometry width="30" height="16" relative="1" as="geometry">
            <mxPoint x="15" y="22" as="offset" />
          </mxGeometry>
        </mxCell>
        <mxCell id="128t403l0EzsuIgGotzG-1066" value="" style="edgeStyle=none;orthogonalLoop=1;jettySize=auto;html=1;rounded=0;dashed=1;strokeWidth=3;strokeColor=#1A1A1A;endArrow=none;endFill=0;entryX=0.975;entryY=0.47;entryDx=0;entryDy=0;entryPerimeter=0;" parent="1" edge="1">
          <mxGeometry width="80" relative="1" as="geometry">
            <mxPoint x="1045" y="190" as="sourcePoint" />
            <mxPoint x="1044.5" y="250" as="targetPoint" />
            <Array as="points" />
          </mxGeometry>
        </mxCell>
        <mxCell id="128t403l0EzsuIgGotzG-1067" value="CI/CD Pipeline" style="text;strokeColor=none;align=center;fillColor=none;html=1;verticalAlign=middle;whiteSpace=wrap;rounded=0;" parent="1" vertex="1">
          <mxGeometry x="1054.87" y="290.23" width="85" height="30" as="geometry" />
        </mxCell>
        <mxCell id="Me7Qgza73jjI77rhl_ww-1048" value="" style="shape=image;verticalLabelPosition=bottom;labelBackgroundColor=default;verticalAlign=top;aspect=fixed;imageAspect=0;image=data:image/svg+xml,PHN2ZyB4bWxucz0iaHR0cDovL3d3dy53My5vcmcvMjAwMC9zdmciIGZpbGw9Im5vbmUiIHZpZXdCb3g9IjAgMCAyNzAgNTciIGhlaWdodD0iNTciIHdpZHRoPSIyNzAiPiYjeGE7PHBhdGggZmlsbD0iIzE2MTYxNiIgZD0iTTIzOS4zMTQgNDUuNzA1OUMyNDcuNDI1IDQ1LjcwNTkgMjU0LjIzMSA0MC4xMzY2IDI1Ni4xNDggMzIuNjA4QzI1Ni4xNiAzMi41NTM2IDI1Ni4xNjkgMzIuNDk2OSAyNTYuMTY5IDMyLjQzOTVDMjU2LjE2OSAzMS45ODE1IDI1NS43OTggMzEuNjEwOSAyNTUuMzQzIDMxLjYxMDlIMjQ4LjMzN0MyNDguMDA0IDMxLjYxMDkgMjQ3LjcxOCAzMS44MDgyIDI0Ny41ODggMzIuMDk0OEwyNDcuNTg2IDMyLjA5MzdDMjQ2LjE0NiAzNS4yMzIxIDI0Mi45ODYgMzcuNDEzOSAyMzkuMzE0IDM3LjQxMzlDMjM0LjI4OCAzNy40MTM5IDIzMC4yMSAzMy4zMzExIDIzMC4yMSAyOC4yOTM1QzIzMC4yMSAyMy4yNTY5IDIzNC4yODggMTkuMTczIDIzOS4zMTQgMTkuMTczQzI0Mi45ODYgMTkuMTczIDI0Ni4xNDYgMjEuMzU0NyAyNDcuNTg2IDI0LjQ5MzdMMjQ3LjU4OCAyNC40OTIzQzI0Ny43MTggMjQuNzc2NiAyNDguMDA0IDI0Ljk3NyAyNDguMzM3IDI0Ljk3N0gyNTUuMzQzQzI1NS43OTggMjQuOTc3IDI1Ni4xNjkgMjQuNjA1NiAyNTYuMTY5IDI0LjE0NzRDMjU2LjE2OSAyNC4wODk5IDI1Ni4xNiAyNC4wMzY5IDI1Ni4xNDggMjMuOTgxN0MyNTQuMjMzIDE2LjQ1MyAyNDcuNDI1IDEwLjg4MiAyMzkuMzE0IDEwLjg4MkMyMjkuNzE5IDEwLjg4MiAyMjEuOTM1IDE4LjY3OTggMjIxLjkzNSAyOC4yOTM1QzIyMS45MzUgMzcuOTEwMSAyMjkuNzE5IDQ1LjcwNTkgMjM5LjMxNCA0NS43MDU5Wk0yNjkuMTcyIDExLjcxMDdWNDQuMDQ2OUMyNjkuMTcyIDQ0LjUwNCAyNjguODAxIDQ0Ljg3NTQgMjY4LjM0NyA0NC44NzU0SDI2MS43MjZDMjYxLjI3IDQ0Ljg3NTQgMjYwLjg5OSA0NC41MDQgMjYwLjg5OSA0NC4wNDY5VjExLjcxMDdIMjY5LjE3MlpNMjY1LjAzNSAwLjEwMzA5NkMyNjIuMjk0IDAuMTAzMDk2IDI2MC4wNzEgMi4zMzEzMiAyNjAuMDcxIDUuMDc4MDdDMjYwLjA3MSA3LjgyNTY2IDI2Mi4yOTQgMTAuMDUzIDI2NS4wMzUgMTAuMDUzQzI2Ny43NzkgMTAuMDUzIDI3MCA3LjgyNTY2IDI3MCA1LjA3ODA3QzI3MCAyLjMzMTMyIDI2Ny43NzkgMC4xMDMwOTYgMjY1LjAzNSAwLjEwMzA5NlpNMTg3LjYyOSAyNC45NzczQzE4OS4wOCAxOS43MjAyIDE5My44ODYgMTUuODU3MiAxOTkuNTk1IDE1Ljg1NzJDMjA1LjMwMyAxNS44NTcyIDIxMC4xMDUgMTkuNzIwMiAyMTEuNTU2IDI0Ljk3NzNIMTg3LjYyOVpNMTk5LjU5NSAxMC44ODJDMTg5Ljk5NiAxMC44ODIgMTgyLjIxNSAxOC42NzcgMTgyLjIxNSAyOC4yOTM1QzE4Mi4yMTUgMzcuOTA5IDE4OS45OTYgNDUuNzA1OSAxOTkuNTk1IDQ1LjcwNTlDMjA2LjM3OSA0NS43MDU5IDIxMi4yNSA0MS44MDggMjE1LjExMiAzNi4xMjc3QzIxNS4xNjkgMzYuMDE0NyAyMTUuMjAxIDM1Ljg5MDEgMjE1LjIwMSAzNS43NTUyQzIxNS4yMDEgMzUuMjk2NCAyMTQuODMxIDM0LjkyNjcgMjE0LjM3NCAzNC45MjY3SDIxMC41MzNDMjEwLjI2IDM0LjkyNjcgMjEwLjAxNyAzNS4wNjA4IDIwOS44NjggMzUuMjY3NkMyMDcuNjMzIDM4LjU2MzEgMjAzLjg2NyA0MC43MzA0IDE5OS41OTUgNDAuNzMwNEMxOTMuMjk5IDQwLjczMDQgMTg4LjEwNCAzNi4wMzU2IDE4Ny4yOTQgMjkuOTUxMUgyMTYuMTIxQzIxNi41NjUgMjkuOTUxMSAyMTYuOTI0IDI5LjYwMTcgMjE2Ljk0NyAyOS4xNjRDMjE2Ljk2MiAyOC44NzU4IDIxNi45NyAyOC41ODUyIDIxNi45NyAyOC4yOTM1QzIxNi45NyAxOC42NzcgMjA5LjE5MSAxMC44ODIgMTk5LjU5NSAxMC44ODJaTTE3Ni40MjMgMC45MzIzNDRIMTczLjExNEMxNzIuNjU1IDAuOTMyMzQ0IDE3Mi4yODYgMS4zMDM3NiAxNzIuMjg2IDEuNzYxMTNWNDQuMDQ3QzE3Mi4yODYgNDQuNTA0MSAxNzIuNjU1IDQ0Ljg3NTUgMTczLjExNCA0NC44NzU1SDE3Ni40MjNDMTc2Ljg4IDQ0Ljg3NTUgMTc3LjI1MiA0NC41MDQxIDE3Ny4yNTIgNDQuMDQ3VjEuNzYxMTNDMTc3LjI1MiAxLjMwMzc2IDE3Ni44OCAwLjkzMjM0NCAxNzYuNDIzIDAuOTMyMzQ0Wk0xNjYuNDkzIDM0LjkyNjdIMTYyLjY1MUMxNjIuMzg0IDM0LjkyNjcgMTYyLjE0NyAzNS4wNTQ5IDE2MS45OTggMzUuMjUyMUMxNTkuNzY3IDM4LjU1NjMgMTU1Ljk5MyA0MC43MzA0IDE1MS43MTQgNDAuNzMwNEMxNDQuODU2IDQwLjczMDQgMTM5LjMgMzUuMTYyMiAxMzkuMyAyOC4yOTM1QzEzOS4zIDIxLjQyNDYgMTQ0Ljg1NiAxNS44NTcgMTUxLjcxNCAxNS44NTdDMTU1Ljk5MyAxNS44NTcgMTU5Ljc2NyAxOC4wMzE0IDE2MS45OTggMjEuMzM0N0MxNjIuMTQ5IDIxLjUzMjggMTYyLjM4NiAyMS42NjA3IDE2Mi42NTEgMjEuNjYwN0gxNjYuNDkzQzE2Ni45NTEgMjEuNjYwNyAxNjcuMzIyIDIxLjI4ODcgMTY3LjMyMiAyMC44MzE3QzE2Ny4zMjIgMjAuNjk2NyAxNjcuMjg3IDIwLjU3MTMgMTY3LjIzIDIwLjQ1OTFDMTY0LjM3IDE0Ljc3OTQgMTU4LjQ5NSAxMC44ODIgMTUxLjcxNCAxMC44ODJDMTQyLjExNiAxMC44ODIgMTM0LjMzNiAxOC42NzcgMTM0LjMzNiAyOC4yOTM1QzEzNC4zMzYgMzcuOTA5IDE0Mi4xMTYgNDUuNzA1OSAxNTEuNzE0IDQ1LjcwNTlDMTU4LjQ5NSA0NS43MDU5IDE2NC4zNyA0MS44MDggMTY3LjIzIDM2LjEyNzdDMTY3LjI4NyAzNi4wMTQ3IDE2Ny4zMjIgMzUuODkwMSAxNjcuMzIyIDM1Ljc1NTJDMTY3LjMyMiAzNS4yOTY0IDE2Ni45NTEgMzQuOTI2NyAxNjYuNDkzIDM0LjkyNjdaTTEzMy41MiAxMC45MDI2QzEyOC41MTIgMTEuMTM5MyAxMjQuNTEzIDEzLjUzNjMgMTIxLjkyMiAxNy4xOTc4VjEyLjUzOUMxMjEuOTIyIDEyLjA4MzYgMTIxLjU1MSAxMS43MTEzIDEyMS4wOTUgMTEuNzExM0gxMTcuNzg1QzExNy4zMjggMTEuNzExMyAxMTYuOTU4IDEyLjA4MzYgMTE2Ljk1OCAxMi41MzlWNDQuMDQ3NUMxMTYuOTU4IDQ0LjUwNDYgMTE3LjMyOCA0NC44NzYgMTE3Ljc4NSA0NC44NzZIMTIxLjA5NUMxMjEuNTUxIDQ0Ljg3NiAxMjEuOTIyIDQ0LjUwNDYgMTIxLjkyMiA0NC4wNDc1VjI4LjI5NDFDMTIxLjkyMiAyMS43MDQ0IDEyNy4wMzkgMTYuMzEyOSAxMzMuNTA2IDE1Ljg4NjNDMTMzLjk2NCAxNS44ODYzIDEzNC4zMzYgMTUuNTE0MyAxMzQuMzM2IDE1LjA1NTVWMTEuNzMxNkMxMzQuMzM2IDExLjI3NzEgMTMzLjk3MSAxMC45MTEzIDEzMy41MiAxMC45MDI2Wk0xMTEuOTkyIDQ0LjA0NjlWMTEuNzEwN0gxMDcuMDI3VjQ0LjA0NjlDMTA3LjAyNyA0NC41MDQgMTA3LjM5OCA0NC44NzU0IDEwNy44NTUgNDQuODc1NEgxMTEuMTY0QzExMS42MjEgNDQuODc1NCAxMTEuOTkyIDQ0LjUwNCAxMTEuOTkyIDQ0LjA0NjlaTTExMi44MTkgNS4wNzg3MUMxMTIuODE5IDYuOTEwNDQgMTExLjMzOCA4LjM5NTI2IDEwOS41MSA4LjM5NTI2QzEwNy42ODIgOC4zOTUyNiAxMDYuMiA2LjkxMDQ0IDEwNi4yIDUuMDc4NzFDMTA2LjIgMy4yNDY5OCAxMDcuNjgyIDEuNzYxNTkgMTA5LjUxIDEuNzYxNTlDMTExLjMzOCAxLjc2MTU5IDExMi44MTkgMy4yNDY5OCAxMTIuODE5IDUuMDc4NzFaTTEwMS4yMzQgMzQuOTI2N0g5Ny4zOTM0Qzk3LjEyNDUgMzQuOTI2NyA5Ni44ODk3IDM1LjA1NDkgOTYuNzM3MiAzNS4yNTIxQzk0LjUwNzggMzguNTU2MyA5MC43MzUxIDQwLjczMDQgODYuNDUzOSA0MC43MzA0Qzc5LjU5NzYgNDAuNzMwNCA3NC4wNDA5IDM1LjE2MjIgNzQuMDQwOSAyOC4yOTM1Qzc0LjA0MDkgMjEuNDI0NiA3OS41OTc2IDE1Ljg1NyA4Ni40NTM5IDE1Ljg1N0M5MC43MzUxIDE1Ljg1NyA5NC41MDc4IDE4LjAzMTQgOTYuNzM4OSAyMS4zMzQ3Qzk2Ljg4OTcgMjEuNTMyOCA5Ny4xMjY4IDIxLjY2MDcgOTcuMzkzNCAyMS42NjA3SDEwMS4yMzRDMTAxLjY5MiAyMS42NjA3IDEwMi4wNjQgMjEuMjg4NyAxMDIuMDY0IDIwLjgzMTdDMTAyLjA2NCAyMC42OTY3IDEwMi4wMjggMjAuNTcxMyAxMDEuOTczIDIwLjQ1OTFDOTkuMTExMyAxNC43Nzk0IDkzLjIzNjUgMTAuODgyIDg2LjQ1MzkgMTAuODgyQzc2Ljg1NjIgMTAuODgyIDY5LjA3NDkgMTguNjc3IDY5LjA3NDkgMjguMjkzNUM2OS4wNzQ5IDM3LjkwOSA3Ni44NTYyIDQ1LjcwNTkgODYuNDUzOSA0NS43MDU5QzkzLjIzNjUgNDUuNzA1OSA5OS4xMTEzIDQxLjgwOCAxMDEuOTczIDM2LjEyNzdDMTAyLjAyOCAzNi4wMTQ3IDEwMi4wNjQgMzUuODkwMSAxMDIuMDY0IDM1Ljc1NTJDMTAyLjA2NCAzNS4yOTY0IDEwMS42OTIgMzQuOTI2NyAxMDEuMjM0IDM0LjkyNjdaTTI3LjM5MTUgMEMxNC4yMTAyIDAgMy4xNDg1OSA5LjA0OTAxIDAuMDM1NDM3NSAyMS4yODNDMC4wMTQzNDM4IDIxLjM3MiAwIDIxLjQ2MjggMCAyMS41NTc1QzAgMjIuMzAxNCAwLjYwMjE1NiAyMi45MDQ1IDEuMzQ0OTQgMjIuOTA0NUgxMi43MjZDMTMuMjY4IDIyLjkwNDUgMTMuNzMxOCAyMi41ODA0IDEzLjk0NTggMjIuMTE3N0wxMy45NDc4IDIyLjExODJDMTYuMjg2MSAxNy4wMTc5IDIxLjQyMjMgMTMuNDcyMiAyNy4zOTE1IDEzLjQ3MjJDMzUuNTU4MiAxMy40NzIyIDQyLjE4MjIgMjAuMTA5MyA0Mi4xODIyIDI4LjI5MzdDNDIuMTgyMiAzNi40Nzg0IDM1LjU1ODIgNDMuMTE1NSAyNy4zOTE1IDQzLjExNTVDMjEuNDIyMyA0My4xMTU1IDE2LjI4NjEgMzkuNTY5OCAxMy45NDc4IDM0LjQ2OEwxMy45NDU4IDM0LjQ3MDhDMTMuNzMxOCAzNC4wMDczIDEzLjI2OCAzMy42ODM4IDEyLjcyNiAzMy42ODM4SDEuMzQ0OTRDMC42MDIxNTYgMzMuNjgzOCAwIDM0LjI4NTEgMCAzNS4wMzExQzAgMzUuMTIzMiAwLjAxNDM0MzcgMzUuMjExMSAwLjAzMzQ2ODggMzUuMjk5M0MzLjE0NTc4IDQ3LjUzNDIgMTQuMjA3NiA1Ni41ODY4IDI3LjM5MTUgNTYuNTg2OEM0Mi45ODUxIDU2LjU4NjggNTUuNjI4NyA0My45MTc4IDU1LjYyODcgMjguMjkzN0M1NS42Mjg3IDEyLjY2NzkgNDIuOTg1MSAwIDI3LjM5MTUgMFpNMjAuNjY3NyAyOC4yOTM4QzIwLjY2NzcgMjQuNTc0MyAyMy42Nzg3IDIxLjU1NzUgMjcuMzkxNSAyMS41NTc1QzMxLjEwNCAyMS41NTc1IDM0LjExMzkgMjQuNTc0MyAzNC4xMTM5IDI4LjI5MzhDMzQuMTEzOSAzMi4wMTM2IDMxLjEwNCAzNS4wMzEyIDI3LjM5MTUgMzUuMDMxMkMyMy42Nzg3IDM1LjAzMTIgMjAuNjY3NyAzMi4wMTM2IDIwLjY2NzcgMjguMjkzOFoiIGNsaXAtcnVsZT0iZXZlbm9kZCIgZmlsbC1ydWxlPSJldmVub2RkIi8+JiN4YTs8L3N2Zz4=;" parent="1" vertex="1">
          <mxGeometry x="1065.26" y="270.23" width="94.74" height="20" as="geometry" />
        </mxCell>
        <mxCell id="Me7Qgza73jjI77rhl_ww-1049" value="" style="shape=image;verticalLabelPosition=bottom;labelBackgroundColor=default;verticalAlign=top;aspect=fixed;imageAspect=0;image=data:image/svg+xml,PHN2ZyB4bWxucz0iaHR0cDovL3d3dy53My5vcmcvMjAwMC9zdmciIGZpbGw9Im5vbmUiIHZpZXdCb3g9IjAgMCA0OCA0OCIgaGVpZ2h0PSI0OCIgd2lkdGg9IjQ4Ij4mI3hhOzxnIGNsaXAtcGF0aD0idXJsKCNjbGlwMF84MzVfNCkiPiYjeGE7PGNpcmNsZSBzdHJva2UtbGluZWpvaW49InJvdW5kIiBzdHJva2UtbGluZWNhcD0icm91bmQiIHN0cm9rZS13aWR0aD0iMiIgc3Ryb2tlPSIjMTYxNjE2IiByPSI1LjI1IiBjeT0iOC4yNSIgY3g9IjguMjUiLz4mI3hhOzxjaXJjbGUgc3Ryb2tlLWxpbmVqb2luPSJyb3VuZCIgc3Ryb2tlLWxpbmVjYXA9InJvdW5kIiBzdHJva2Utd2lkdGg9IjIiIHN0cm9rZT0iIzE2MTYxNiIgcj0iNS4yNSIgY3k9IjI0IiBjeD0iMjQiLz4mI3hhOzxjaXJjbGUgc3Ryb2tlLWxpbmVqb2luPSJyb3VuZCIgc3Ryb2tlLWxpbmVjYXA9InJvdW5kIiBzdHJva2Utd2lkdGg9IjIiIHN0cm9rZT0iIzE2MTYxNiIgcj0iNS4yNSIgY3k9IjM5Ljc1IiBjeD0iMzkuNzUiLz4mI3hhOzxwYXRoIHN0cm9rZS1saW5lam9pbj0icm91bmQiIHN0cm9rZS1saW5lY2FwPSJyb3VuZCIgc3Ryb2tlLXdpZHRoPSIyIiBzdHJva2U9IiMxNjE2MTYiIGQ9Ik0xMy41IDguMjVIMzcuMTI1QzQxLjQ3NDIgOC4yNSA0NSAxMS43NzU4IDQ1IDE2LjEyNVYxNi4xMjVDNDUgMjAuNDc0MiA0MS40NzQyIDI0IDM3LjEyNSAyNEgyOS4yNSIvPiYjeGE7PHBhdGggc3Ryb2tlLWxpbmVqb2luPSJyb3VuZCIgc3Ryb2tlLWxpbmVjYXA9InJvdW5kIiBzdHJva2Utd2lkdGg9IjIiIHN0cm9rZT0iIzE2MTYxNiIgZD0iTTE4Ljc1IDI0SDEwLjg3NUM2LjUyNTc2IDI0IDMgMjcuNTI1OCAzIDMxLjg3NVYzMS44NzVDMyAzNi4yMjQyIDYuNTI1NzYgMzkuNzUgMTAuODc1IDM5Ljc1SDM0LjUiLz4mI3hhOzwvZz4mI3hhOzxkZWZzPiYjeGE7PGNsaXBQYXRoIGlkPSJjbGlwMF84MzVfNCI+JiN4YTs8cmVjdCBmaWxsPSJ3aGl0ZSIgaGVpZ2h0PSI0OCIgd2lkdGg9IjQ4Ii8+JiN4YTs8L2NsaXBQYXRoPiYjeGE7PC9kZWZzPiYjeGE7PC9zdmc+;" parent="1" vertex="1">
          <mxGeometry x="1024.8700000000001" y="265.23" width="30" height="30" as="geometry" />
        </mxCell>
        <mxCell id="-nsx5n0LYgDPwQ-Q7mOv-1050" style="edgeStyle=orthogonalEdgeStyle;rounded=0;html=1;labelBackgroundColor=none;startFill=0;startSize=4;endArrow=blockThin;endFill=1;endSize=4;jettySize=auto;orthogonalLoop=1;strokeColor=#4284F3;strokeWidth=2;fontSize=12;fontColor=#000000;align=left;dashed=0;startArrow=none;" edge="1" parent="1">
          <mxGeometry relative="1" as="geometry">
            <mxPoint x="170" y="320.23" as="sourcePoint" />
            <mxPoint x="170" y="210" as="targetPoint" />
            <Array as="points">
              <mxPoint x="170" y="260" />
              <mxPoint x="170" y="260" />
            </Array>
          </mxGeometry>
        </mxCell>
        <mxCell id="-nsx5n0LYgDPwQ-Q7mOv-1054" value="cloudresume.lomaqatsi.com" style="text;html=1;align=center;verticalAlign=middle;whiteSpace=wrap;rounded=0;strokeColor=none;labelBorderColor=default;textShadow=0;" vertex="1" parent="1">
          <mxGeometry x="140" y="170" width="60" height="30" as="geometry" />
        </mxCell>
      </root>
    </mxGraphModel>
  </diagram>
</mxfile>
